<svg xmlns="http://www.w3.org/2000/svg" xmlns:xlink="http://www.w3.org/1999/xlink" width="500" zoomAndPan="magnify" viewBox="0 0 375 374.999991" height="500" preserveAspectRatio="xMidYMid meet" version="1.0"><defs><g/><clipPath id="a214d3d3eb"><path d="M 129 79.019531 L 245 79.019531 L 245 191 L 129 191 Z M 129 79.019531 " clip-rule="nonzero"/></clipPath><clipPath id="2a790621a2"><path d="M 127.128906 276 L 247.128906 276 L 247.128906 295.605469 L 127.128906 295.605469 Z M 127.128906 276 " clip-rule="nonzero"/></clipPath><clipPath id="bf085daad1"><path d="M 137 282 L 237 282 L 237 295.605469 L 137 295.605469 Z M 137 282 " clip-rule="nonzero"/></clipPath><clipPath id="073b793f91"><path d="M 137 270.855469 L 237 270.855469 L 237 295 L 137 295 Z M 137 270.855469 " clip-rule="nonzero"/></clipPath></defs><rect x="-37.5" width="450" fill="#ffffff" y="-37.499999" height="449.999989" fill-opacity="1"/><rect x="-37.5" width="450" fill="#fffaf6" y="-37.499999" height="449.999989" fill-opacity="1"/><path fill="#f7e6d3" d="M 239.53125 135.34375 C 238.128906 123.644531 230.515625 112.730469 218.949219 107.964844 C 215.050781 106.359375 210.816406 105.457031 206.542969 104.8125 C 201.71875 104.085938 196.808594 103.683594 191.871094 103.785156 C 173.078125 104.179688 153.84375 112.625 142.5 126.890625 C 131.152344 141.15625 128.703125 161.074219 137.792969 175.636719 C 139.980469 179.148438 142.757812 182.308594 145.722656 185.28125 C 147.65625 187.226562 149.703125 189.117188 152.148438 190.507812 C 156.46875 192.960938 161.738281 193.695312 166.867188 194.300781 C 173.207031 195.046875 179.628906 195.671875 186.066406 195.128906 C 202.492188 193.742188 216.503906 177.222656 228.785156 169.167969 C 241.066406 161.113281 240.933594 147.042969 239.53125 135.34375 Z M 173.101562 184.058594 C 168.128906 184.058594 164.101562 180.023438 164.101562 175.054688 C 164.101562 170.085938 168.132812 166.046875 173.101562 166.046875 C 178.078125 166.046875 182.105469 170.082031 182.105469 175.050781 C 182.105469 180.019531 178.078125 184.058594 173.101562 184.058594 Z M 173.101562 184.058594 " fill-opacity="1" fill-rule="nonzero"/><g clip-path="url(#a214d3d3eb)"><path fill="#a15a19" d="M 172.144531 161.398438 C 168.3125 159.917969 163.902344 161.289062 161.386719 164.476562 C 158.734375 167.832031 158.390625 172.640625 160.53125 176.351562 C 162.585938 179.90625 166.679688 181.894531 170.734375 181.085938 C 175.4375 180.152344 178.566406 175.699219 178.609375 171.039062 C 178.566406 166.839844 176.109375 162.921875 172.144531 161.398438 Z M 171.753906 179.230469 C 168.4375 180.527344 164.679688 179.390625 162.5 176.609375 C 160.277344 173.769531 160.003906 169.675781 161.777344 166.550781 C 163.503906 163.507812 167.011719 161.703125 170.492188 162.464844 C 174.46875 163.332031 177.070312 167.066406 177.105469 171.039062 C 177.074219 174.527344 175.070312 177.929688 171.753906 179.230469 Z M 154.832031 140.507812 C 155.699219 142.050781 155.070312 143.375 154.429688 144.847656 C 153.902344 146.082031 154.046875 147.5625 153.238281 148.675781 C 152.308594 149.96875 150.582031 150.082031 149.148438 150.316406 C 147.214844 150.625 145.34375 150.488281 143.785156 149.207031 C 142.5 148.148438 141.476562 146.722656 141 145.128906 C 140.160156 142.320312 140.878906 138.5625 143.410156 136.804688 C 144.597656 135.980469 146.230469 135.644531 147.65625 135.65625 C 149.21875 135.671875 150.789062 136.324219 152 137.289062 C 152.59375 137.757812 153.039062 138.347656 153.554688 138.902344 C 154.007812 139.40625 154.492188 139.910156 154.832031 140.507812 Z M 158.660156 119.78125 C 159.070312 121.40625 159.339844 123.097656 158.8125 124.722656 C 158.34375 126.164062 157.710938 127.789062 156.261719 128.5 C 155.546875 128.847656 154.769531 128.945312 153.996094 129.0625 C 153.210938 129.1875 152.441406 129.398438 151.65625 129.5 C 150.070312 129.710938 148.378906 129.082031 147.09375 128.15625 C 145.824219 127.242188 144.832031 125.699219 144.40625 124.203125 C 144.015625 122.800781 143.816406 121.023438 144.292969 119.621094 C 144.746094 118.28125 146.078125 117.84375 147.121094 117.070312 C 148.210938 116.261719 148.878906 115.097656 150.214844 114.671875 C 150.28125 114.644531 150.34375 114.617188 150.429688 114.601562 C 150.488281 114.589844 150.546875 114.582031 150.609375 114.578125 C 151.585938 114.449219 152.503906 114.613281 153.441406 114.933594 C 154.257812 115.210938 155.09375 115.5 155.835938 115.945312 C 157.296875 116.816406 158.238281 118.136719 158.660156 119.78125 Z M 155.671875 106.121094 C 154.988281 104.679688 155.023438 102.855469 155.347656 101.320312 C 155.691406 99.691406 156.765625 98.71875 158.066406 97.78125 C 158.738281 97.292969 159.359375 96.828125 160.171875 96.59375 C 160.957031 96.375 161.785156 96.332031 162.589844 96.253906 C 164.464844 96.085938 166.339844 96.363281 167.695312 97.789062 C 168.292969 98.421875 168.765625 99.1875 169.230469 99.917969 C 169.703125 100.667969 170.132812 101.464844 170.320312 102.335938 C 170.675781 103.992188 170.480469 105.652344 169.878906 107.210938 C 169.324219 108.632812 168.953125 110.074219 167.601562 110.949219 C 164.8125 112.757812 160.746094 112.515625 158.402344 110.0625 C 157.816406 109.449219 157.355469 108.726562 156.890625 108.027344 C 156.457031 107.40625 155.996094 106.800781 155.671875 106.121094 Z M 176.867188 101.824219 C 176.289062 100.152344 175.675781 98.367188 176.839844 96.804688 C 177.332031 96.152344 177.964844 95.648438 178.566406 95.109375 C 179.199219 94.539062 179.832031 94.003906 180.59375 93.609375 C 182.109375 92.820312 183.828125 92.46875 185.53125 92.65625 C 187.144531 92.835938 188.394531 93.558594 189.6875 94.496094 C 190.960938 95.421875 191.863281 96.355469 192.21875 97.941406 C 192.550781 99.449219 192.511719 101.101562 191.5 102.347656 C 191.015625 102.945312 190.394531 103.402344 189.828125 103.917969 C 189.308594 104.386719 188.828125 104.886719 188.277344 105.316406 C 187.644531 105.8125 186.921875 106.210938 186.121094 106.347656 C 185.296875 106.492188 184.476562 106.320312 183.671875 106.132812 C 182.886719 105.957031 182.144531 105.921875 181.34375 105.898438 C 180.628906 105.878906 179.902344 105.8125 179.265625 105.460938 C 177.941406 104.738281 177.332031 103.167969 176.867188 101.824219 Z M 244.121094 81.660156 C 242.851562 80.210938 240.304688 79.238281 238.757812 80.675781 C 238.699219 80.738281 238.261719 81.222656 238.261719 81.222656 C 233.75 85.398438 227.527344 91.132812 220.71875 97.410156 C 220.511719 97.097656 220.3125 96.785156 220.097656 96.480469 C 214.769531 88.929688 206.917969 83.644531 197.957031 81.425781 C 195.582031 80.839844 193.160156 80.464844 190.722656 80.25 C 181.164062 79.640625 171.457031 80.910156 162.609375 84.679688 C 153.777344 88.441406 146.246094 94.679688 140.65625 102.457031 C 134.214844 111.402344 129.9375 122.289062 129.324219 133.335938 C 129.011719 139.007812 129.757812 144.71875 131.691406 150.066406 C 133.730469 155.710938 136.78125 160.988281 139.890625 166.097656 C 145.742188 175.703125 153.371094 185.167969 164.359375 188.976562 C 169.570312 190.78125 175.84375 191.3125 180.730469 188.339844 C 185.089844 185.683594 187.644531 180.9375 189.46875 176.324219 C 191.5 171.195312 192.726562 165.6875 195.6875 160.96875 C 198.652344 156.234375 203.414062 153.453125 208.121094 150.695312 C 212.59375 148.074219 216.808594 145.132812 220.324219 141.28125 C 223.742188 137.535156 226.480469 133.101562 227.816406 128.1875 C 229.367188 122.488281 228.78125 116.539062 227.035156 110.960938 C 226.292969 108.582031 225.394531 106.214844 224.339844 103.917969 C 228.804688 99.835938 240.832031 88.996094 243.503906 86.519531 C 244.945312 85.183594 245.53125 83.265625 244.121094 81.660156 Z M 227.234375 120.902344 C 227.375 131.222656 220.90625 140.125 212.816406 145.949219 C 208.609375 148.980469 203.824219 151.113281 199.734375 154.324219 C 197.65625 155.960938 195.855469 157.886719 194.441406 160.125 C 193.007812 162.394531 191.960938 164.886719 191.03125 167.398438 C 189.234375 172.289062 187.902344 177.40625 185.050781 181.832031 C 183.761719 183.832031 182.148438 185.671875 180.121094 186.941406 C 177.699219 188.464844 174.851562 189.011719 172.015625 188.933594 C 160.863281 188.613281 151.671875 180.367188 145.453125 171.808594 C 142.050781 167.125 139.089844 162.070312 136.402344 156.945312 C 133.742188 151.863281 131.671875 146.507812 131.019531 140.777344 C 129.777344 129.902344 132.808594 118.835938 138.058594 109.355469 C 142.71875 100.941406 149.308594 93.6875 157.652344 88.824219 C 165.550781 84.21875 174.605469 81.945312 183.710938 81.625 C 186.046875 81.546875 188.386719 81.589844 190.71875 81.734375 C 199.839844 82.527344 208.578125 86.113281 215.03125 92.707031 C 216.757812 94.464844 218.261719 96.394531 219.59375 98.4375 C 218.914062 99.066406 218.234375 99.695312 217.542969 100.328125 C 209.511719 107.738281 201.992188 115.703125 196.789062 120.523438 C 193.832031 123.265625 190.671875 125.785156 187.71875 128.519531 C 187.324219 128.890625 186.964844 129.34375 186.679688 129.839844 C 183.507812 129.75 180.347656 131.125 178.242188 133.558594 C 175.566406 136.65625 174.625 141.019531 171.5 143.753906 C 169.996094 145.0625 167.792969 146.109375 165.859375 145.109375 C 165.007812 144.664062 164.25 145.957031 165.109375 146.398438 C 166.375 147.058594 167.664062 147.132812 168.902344 146.832031 C 168.875 146.878906 168.847656 146.914062 168.832031 146.96875 C 168.730469 147.316406 168.957031 147.835938 169.355469 147.890625 C 171.742188 148.214844 173.96875 149.226562 176.316406 149.730469 C 177.433594 149.96875 178.585938 150.113281 179.726562 149.964844 C 180.589844 149.847656 181.421875 149.554688 182.230469 149.242188 C 185.363281 148.015625 187.816406 145.851562 189.296875 142.804688 C 190.433594 140.472656 191.039062 137.925781 191.429688 135.367188 C 191.914062 135.25 192.359375 135.035156 192.71875 134.707031 C 203.105469 125.074219 212.75 114.648438 223.132812 105.019531 C 225.40625 110.015625 227.164062 115.378906 227.234375 120.902344 Z M 186.578125 133.773438 C 185.71875 134.855469 184.972656 136.035156 184.207031 137.183594 C 183.113281 138.828125 181.957031 140.394531 180.5 141.742188 C 179.023438 143.109375 177.34375 144.132812 175.441406 144.777344 C 174.183594 145.207031 172.847656 145.542969 171.507812 145.625 C 172.804688 144.730469 173.925781 143.507812 174.722656 142.285156 C 176.972656 138.835938 178.199219 134.472656 182.058594 132.414062 C 183.316406 131.746094 184.710938 131.375 186.117188 131.339844 C 185.953125 132.195312 186.058594 133.054688 186.578125 133.773438 Z M 174.359375 146.652344 C 175.882812 146.269531 177.414062 145.714844 178.769531 144.914062 C 181.648438 143.210938 183.71875 140.613281 185.542969 137.871094 C 186.238281 136.828125 186.921875 135.742188 187.703125 134.75 C 188.125 134.996094 188.605469 135.1875 189.101562 135.3125 C 189.058594 135.363281 189.015625 135.421875 188.980469 135.492188 C 186.679688 140.117188 183.15625 145.082031 177.972656 146.628906 C 176.382812 147.101562 174.734375 147.175781 173.109375 146.917969 C 173.53125 146.847656 173.949219 146.757812 174.359375 146.652344 Z M 182.070312 146.320312 C 184.675781 144.574219 186.75 142.132812 188.429688 139.511719 C 188.792969 138.9375 189.136719 138.355469 189.472656 137.761719 C 188.828125 140.578125 187.757812 143.34375 185.683594 145.371094 C 184.6875 146.347656 183.496094 147.09375 182.214844 147.640625 C 181.550781 147.925781 180.863281 148.167969 180.167969 148.359375 C 179.164062 148.632812 178.097656 148.546875 177.085938 148.359375 C 177.070312 148.351562 177.054688 148.351562 177.042969 148.347656 C 178.820312 148.039062 180.519531 147.355469 182.070312 146.320312 Z M 222.398438 119.632812 C 222.707031 121.929688 222.523438 124.234375 221.871094 126.457031 C 219.402344 134.855469 211.886719 139.949219 204.933594 144.476562 C 204.125 145.003906 203.375 143.707031 204.179688 143.183594 C 206.09375 141.9375 208.007812 140.691406 209.855469 139.339844 C 215.914062 134.910156 222.054688 128.15625 220.960938 120.027344 C 220.90625 119.628906 221.050781 119.21875 221.484375 119.105469 C 221.835938 119.019531 222.34375 119.230469 222.398438 119.632812 Z M 199.617188 147.519531 C 199.554688 147.582031 199.492188 147.644531 199.429688 147.707031 C 198.75 148.386719 197.691406 147.332031 198.375 146.648438 C 198.433594 146.589844 198.5 146.523438 198.558594 146.464844 C 199.242188 145.78125 200.296875 146.835938 199.617188 147.519531 Z M 199.617188 147.519531 " fill-opacity="1" fill-rule="nonzero"/></g><g fill="#a15a19" fill-opacity="1"><g transform="translate(106.221114, 234.05146)"><g><path d="M 9.953125 -31.40625 C 9.921875 -30.96875 9.882812 -30.535156 9.84375 -30.109375 C 9.8125 -29.691406 9.757812 -29.257812 9.6875 -28.8125 C 10.226562 -29.582031 10.703125 -30.378906 11.109375 -31.203125 C 11.515625 -32.035156 11.957031 -32.835938 12.4375 -33.609375 C 12.90625 -34.335938 13.40625 -35.019531 13.9375 -35.65625 C 14.46875 -36.300781 15.101562 -36.882812 15.84375 -37.40625 C 17.238281 -38.394531 18.578125 -38.757812 19.859375 -38.5 C 21.140625 -38.238281 22.238281 -37.394531 23.15625 -35.96875 C 23.851562 -34.832031 24.363281 -33.625 24.6875 -32.34375 C 25.019531 -31.0625 25.332031 -29.773438 25.625 -28.484375 C 25.695312 -28.117188 25.757812 -27.757812 25.8125 -27.40625 C 25.875 -27.0625 25.941406 -26.707031 26.015625 -26.34375 C 26.304688 -26.414062 26.476562 -26.5625 26.53125 -26.78125 C 26.59375 -27 26.660156 -27.179688 26.734375 -27.328125 C 27.128906 -28.398438 27.59375 -29.421875 28.125 -30.390625 C 28.664062 -31.359375 29.242188 -32.300781 29.859375 -33.21875 C 30.335938 -33.875 30.851562 -34.46875 31.40625 -35 C 31.957031 -35.539062 32.582031 -35.992188 33.28125 -36.359375 C 34.851562 -37.203125 36.410156 -37.394531 37.953125 -36.9375 C 39.492188 -36.476562 40.6875 -35.457031 41.53125 -33.875 C 41.925781 -33.070312 42.21875 -32.21875 42.40625 -31.3125 C 42.59375 -30.414062 42.703125 -29.507812 42.734375 -28.59375 C 42.847656 -26.363281 42.859375 -24.117188 42.765625 -21.859375 C 42.671875 -19.609375 42.515625 -17.363281 42.296875 -15.125 C 42.078125 -12.707031 41.945312 -10.296875 41.90625 -7.890625 C 41.875 -5.492188 42.054688 -3.082031 42.453125 -0.65625 C 42.453125 -0.582031 42.460938 -0.488281 42.484375 -0.375 C 42.503906 -0.269531 42.515625 -0.164062 42.515625 -0.0625 C 42.628906 0.164062 42.722656 0.414062 42.796875 0.6875 C 42.867188 0.957031 43.03125 1.128906 43.28125 1.203125 C 43.613281 1.359375 43.863281 1.320312 44.03125 1.09375 C 44.195312 0.875 44.367188 0.675781 44.546875 0.5 C 46.304688 -1.332031 47.753906 -3.351562 48.890625 -5.5625 C 49.554688 -6.769531 50.171875 -7.992188 50.734375 -9.234375 C 51.304688 -10.484375 51.8125 -11.769531 52.25 -13.09375 C 52.363281 -13.457031 52.472656 -13.734375 52.578125 -13.921875 C 52.691406 -14.097656 52.835938 -14.1875 53.015625 -14.1875 C 53.203125 -14.1875 53.382812 -14.148438 53.5625 -14.078125 C 53.894531 -13.972656 54.023438 -13.734375 53.953125 -13.359375 C 53.847656 -12.960938 53.738281 -12.578125 53.625 -12.203125 C 53.507812 -11.835938 53.378906 -11.472656 53.234375 -11.109375 C 52.429688 -9.128906 51.539062 -7.175781 50.5625 -5.25 C 49.59375 -3.320312 48.46875 -1.476562 47.1875 0.28125 C 47.039062 0.457031 46.882812 0.644531 46.71875 0.84375 C 46.550781 1.050781 46.394531 1.265625 46.25 1.484375 C 45.707031 2.367188 44.976562 2.851562 44.0625 2.9375 C 43.144531 3.03125 42.28125 2.859375 41.46875 2.421875 C 40.664062 1.984375 40.097656 1.378906 39.765625 0.609375 C 39.359375 -0.453125 39.082031 -1.535156 38.9375 -2.640625 C 38.789062 -3.742188 38.679688 -4.84375 38.609375 -5.9375 C 38.390625 -8.582031 38.316406 -11.210938 38.390625 -13.828125 C 38.460938 -16.453125 38.5 -19.066406 38.5 -21.671875 C 38.539062 -23.023438 38.566406 -24.390625 38.578125 -25.765625 C 38.597656 -27.140625 38.515625 -28.523438 38.328125 -29.921875 C 38.179688 -30.941406 37.851562 -31.910156 37.34375 -32.828125 C 36.832031 -33.710938 36.226562 -34.191406 35.53125 -34.265625 C 34.832031 -34.335938 34.132812 -34.007812 33.4375 -33.28125 C 33.21875 -33.019531 33.015625 -32.769531 32.828125 -32.53125 C 32.648438 -32.289062 32.488281 -32.023438 32.34375 -31.734375 C 29.476562 -26.421875 27.734375 -20.773438 27.109375 -14.796875 C 26.960938 -13.222656 26.878906 -11.632812 26.859375 -10.03125 C 26.847656 -8.4375 26.804688 -6.851562 26.734375 -5.28125 C 26.734375 -4.507812 26.660156 -4.039062 26.515625 -3.875 C 26.367188 -3.707031 25.890625 -3.609375 25.078125 -3.578125 C 24.859375 -3.535156 24.628906 -3.515625 24.390625 -3.515625 C 24.148438 -3.515625 23.921875 -3.515625 23.703125 -3.515625 C 23.117188 -3.484375 22.757812 -3.53125 22.625 -3.65625 C 22.5 -3.78125 22.4375 -4.140625 22.4375 -4.734375 C 22.40625 -5.390625 22.378906 -6.054688 22.359375 -6.734375 C 22.335938 -7.410156 22.347656 -8.082031 22.390625 -8.75 C 22.421875 -11.9375 22.296875 -15.101562 22.015625 -18.25 C 21.742188 -21.40625 21.425781 -24.546875 21.0625 -27.671875 C 20.84375 -29.679688 20.367188 -31.640625 19.640625 -33.546875 C 19.523438 -33.804688 19.410156 -34.054688 19.296875 -34.296875 C 19.191406 -34.535156 19.082031 -34.742188 18.96875 -34.921875 C 18.382812 -35.734375 17.742188 -35.769531 17.046875 -35.03125 C 16.535156 -34.550781 16.085938 -34.019531 15.703125 -33.4375 C 15.316406 -32.851562 14.976562 -32.25 14.6875 -31.625 C 13.582031 -29.53125 12.65625 -27.382812 11.90625 -25.1875 C 11.15625 -22.988281 10.539062 -20.734375 10.0625 -18.421875 C 9.507812 -15.859375 9.078125 -13.265625 8.765625 -10.640625 C 8.460938 -8.015625 8.195312 -5.382812 7.96875 -2.75 C 7.9375 -2.050781 7.851562 -1.632812 7.71875 -1.5 C 7.59375 -1.375 7.164062 -1.296875 6.4375 -1.265625 C 6.070312 -1.265625 5.648438 -1.265625 5.171875 -1.265625 C 4.253906 -1.265625 3.710938 -1.335938 3.546875 -1.484375 C 3.378906 -1.628906 3.242188 -2.179688 3.140625 -3.140625 C 2.835938 -5.890625 2.707031 -8.640625 2.75 -11.390625 C 2.789062 -14.140625 2.863281 -16.867188 2.96875 -19.578125 C 3.039062 -21.453125 3.128906 -23.320312 3.234375 -25.1875 C 3.347656 -27.0625 3.515625 -28.929688 3.734375 -30.796875 C 4.140625 -34.359375 4.691406 -37.820312 5.390625 -41.1875 C 5.535156 -41.882812 5.691406 -42.296875 5.859375 -42.421875 C 6.023438 -42.554688 6.457031 -42.625 7.15625 -42.625 C 7.550781 -42.582031 7.941406 -42.550781 8.328125 -42.53125 C 8.710938 -42.519531 9.085938 -42.515625 9.453125 -42.515625 C 10.078125 -42.515625 10.425781 -42.222656 10.5 -41.640625 C 10.644531 -40.648438 10.679688 -39.675781 10.609375 -38.71875 C 10.503906 -37.46875 10.394531 -36.238281 10.28125 -35.03125 C 10.175781 -33.820312 10.066406 -32.613281 9.953125 -31.40625 Z M 9.953125 -31.40625 "/></g></g></g><g fill="#a15a19" fill-opacity="1"><g transform="translate(157.477402, 234.05146)"><g><path d="M 29.53125 -15.40625 C 30.050781 -15.175781 30.335938 -14.988281 30.390625 -14.84375 C 30.441406 -14.695312 30.359375 -14.351562 30.140625 -13.8125 C 29.078125 -11.425781 27.984375 -9.066406 26.859375 -6.734375 C 25.742188 -4.410156 24.582031 -2.09375 23.375 0.21875 C 23.113281 0.726562 22.816406 1.238281 22.484375 1.75 C 22.160156 2.269531 21.796875 2.75 21.390625 3.1875 C 20.660156 4 19.78125 4.484375 18.75 4.640625 C 17.726562 4.804688 16.738281 4.675781 15.78125 4.25 C 14.832031 3.832031 14.097656 3.148438 13.578125 2.203125 C 13.035156 1.140625 12.625 0.03125 12.34375 -1.125 C 12.070312 -2.28125 11.84375 -3.445312 11.65625 -4.625 C 11.476562 -5.71875 11.359375 -6.804688 11.296875 -7.890625 C 11.242188 -8.972656 11.179688 -10.066406 11.109375 -11.171875 C 11.109375 -11.273438 11.109375 -11.410156 11.109375 -11.578125 C 11.109375 -11.742188 11.015625 -11.898438 10.828125 -12.046875 C 10.535156 -11.492188 10.234375 -10.960938 9.921875 -10.453125 C 9.609375 -9.941406 9.289062 -9.410156 8.96875 -8.859375 C 8.675781 -8.335938 8.351562 -7.835938 8 -7.359375 C 7.65625 -6.890625 7.28125 -6.414062 6.875 -5.9375 C 6.070312 -5.09375 5.0625 -4.671875 3.84375 -4.671875 C 2.3125 -4.671875 1.25 -5.367188 0.65625 -6.765625 C 0.363281 -7.460938 0.144531 -8.175781 0 -8.90625 C -0.144531 -9.644531 -0.238281 -10.378906 -0.28125 -11.109375 C -0.351562 -12.679688 -0.273438 -14.21875 -0.046875 -15.71875 C 0.171875 -17.226562 0.585938 -18.695312 1.203125 -20.125 C 1.941406 -21.8125 2.925781 -23.242188 4.15625 -24.421875 C 5.382812 -25.597656 6.953125 -26.367188 8.859375 -26.734375 C 9.515625 -26.835938 10.144531 -26.851562 10.75 -26.78125 C 11.351562 -26.707031 11.96875 -26.597656 12.59375 -26.453125 C 12.957031 -26.378906 13.378906 -26.414062 13.859375 -26.5625 C 14.585938 -26.851562 15.347656 -26.988281 16.140625 -26.96875 C 16.929688 -26.957031 17.710938 -26.929688 18.484375 -26.890625 C 18.660156 -26.890625 18.785156 -26.828125 18.859375 -26.703125 C 18.929688 -26.578125 18.988281 -26.441406 19.03125 -26.296875 C 19.132812 -25.960938 19.195312 -25.617188 19.21875 -25.265625 C 19.238281 -24.921875 19.25 -24.582031 19.25 -24.25 C 19.207031 -21.320312 19.113281 -18.398438 18.96875 -15.484375 C 18.820312 -12.566406 18.660156 -9.640625 18.484375 -6.703125 C 18.410156 -5.609375 18.351562 -4.519531 18.3125 -3.4375 C 18.28125 -2.351562 18.28125 -1.265625 18.3125 -0.171875 C 18.3125 0.128906 18.328125 0.441406 18.359375 0.765625 C 18.398438 1.097656 18.492188 1.429688 18.640625 1.765625 C 18.929688 1.648438 19.160156 1.472656 19.328125 1.234375 C 19.492188 0.992188 19.648438 0.785156 19.796875 0.609375 C 20.679688 -0.671875 21.488281 -2 22.21875 -3.375 C 22.945312 -4.75 23.660156 -6.132812 24.359375 -7.53125 C 24.984375 -8.707031 25.578125 -9.890625 26.140625 -11.078125 C 26.710938 -12.273438 27.296875 -13.457031 27.890625 -14.625 C 28.179688 -15.21875 28.40625 -15.550781 28.5625 -15.625 C 28.726562 -15.695312 29.050781 -15.625 29.53125 -15.40625 Z M 12.59375 -22.546875 C 12.664062 -23.316406 12.488281 -23.863281 12.0625 -24.1875 C 11.644531 -24.519531 11.070312 -24.597656 10.34375 -24.421875 C 10.050781 -24.304688 9.773438 -24.164062 9.515625 -24 C 9.253906 -23.84375 9.015625 -23.65625 8.796875 -23.4375 C 8.359375 -23.03125 7.972656 -22.597656 7.640625 -22.140625 C 7.316406 -21.679688 7.003906 -21.210938 6.703125 -20.734375 C 5.609375 -19.015625 4.835938 -17.207031 4.390625 -15.3125 C 3.953125 -13.425781 3.71875 -11.472656 3.6875 -9.453125 C 3.6875 -9.304688 3.675781 -9.148438 3.65625 -8.984375 C 3.632812 -8.828125 3.644531 -8.675781 3.6875 -8.53125 C 3.71875 -8.195312 3.695312 -7.828125 3.625 -7.421875 C 3.550781 -7.015625 3.753906 -6.757812 4.234375 -6.65625 C 4.640625 -6.539062 4.953125 -6.65625 5.171875 -7 C 5.390625 -7.351562 5.570312 -7.675781 5.71875 -7.96875 C 6.96875 -10.03125 8.113281 -12.128906 9.15625 -14.265625 C 10.195312 -16.410156 11.195312 -18.566406 12.15625 -20.734375 C 12.375 -21.285156 12.519531 -21.890625 12.59375 -22.546875 Z M 12.59375 -22.546875 "/></g></g></g><g fill="#a15a19" fill-opacity="1"><g transform="translate(185.800348, 234.05146)"><g><path d="M 10.609375 -26.5625 C 10.609375 -26.707031 10.625 -26.863281 10.65625 -27.03125 C 10.695312 -27.195312 10.679688 -27.390625 10.609375 -27.609375 C 9.734375 -27.722656 8.84375 -27.820312 7.9375 -27.90625 C 7.039062 -28 6.15625 -28.15625 5.28125 -28.375 C 5.207031 -27.53125 5.132812 -26.710938 5.0625 -25.921875 C 4.988281 -25.140625 4.929688 -24.363281 4.890625 -23.59375 C 4.640625 -19.96875 4.238281 -16.347656 3.6875 -12.734375 C 3.132812 -9.117188 2.472656 -5.515625 1.703125 -1.921875 C 1.703125 -1.847656 1.691406 -1.773438 1.671875 -1.703125 C 1.660156 -1.628906 1.632812 -1.554688 1.59375 -1.484375 C 1.226562 0.015625 0.332031 0.453125 -1.09375 -0.171875 C -1.320312 -0.242188 -1.453125 -0.359375 -1.484375 -0.515625 C -1.523438 -0.679688 -1.546875 -0.859375 -1.546875 -1.046875 C -1.503906 -1.742188 -1.4375 -2.441406 -1.34375 -3.140625 C -1.25 -3.835938 -1.148438 -4.53125 -1.046875 -5.21875 C -0.566406 -7.863281 -0.191406 -10.523438 0.078125 -13.203125 C 0.359375 -15.878906 0.570312 -18.570312 0.71875 -21.28125 C 0.789062 -22.5625 0.878906 -23.832031 0.984375 -25.09375 C 1.097656 -26.363281 1.207031 -27.625 1.3125 -28.875 C 1.3125 -29.09375 1.335938 -29.300781 1.390625 -29.5 C 1.453125 -29.707031 1.503906 -29.898438 1.546875 -30.078125 C 1.617188 -30.890625 2.078125 -31.222656 2.921875 -31.078125 C 3.578125 -31.003906 4.21875 -30.921875 4.84375 -30.828125 C 5.46875 -30.734375 6.070312 -30.519531 6.65625 -30.1875 C 7.207031 -29.863281 7.785156 -29.644531 8.390625 -29.53125 C 8.992188 -29.425781 9.609375 -29.351562 10.234375 -29.3125 C 10.960938 -29.28125 11.691406 -29.265625 12.421875 -29.265625 C 13.160156 -29.265625 13.894531 -29.265625 14.625 -29.265625 C 15.65625 -29.265625 16.378906 -29.035156 16.796875 -28.578125 C 17.222656 -28.117188 17.363281 -27.375 17.21875 -26.34375 C 17.03125 -24.945312 16.816406 -23.539062 16.578125 -22.125 C 16.335938 -20.71875 16.128906 -19.320312 15.953125 -17.9375 C 15.585938 -15.507812 15.328125 -13.09375 15.171875 -10.6875 C 15.023438 -8.289062 15.007812 -5.882812 15.125 -3.46875 C 15.164062 -2.476562 15.257812 -1.476562 15.40625 -0.46875 C 15.550781 0.539062 15.769531 1.519531 16.0625 2.46875 C 16.238281 3.0625 16.445312 3.382812 16.6875 3.4375 C 16.925781 3.488281 17.265625 3.316406 17.703125 2.921875 C 18.367188 2.367188 18.945312 1.742188 19.4375 1.046875 C 19.9375 0.347656 20.40625 -0.363281 20.84375 -1.09375 C 21.726562 -2.675781 22.488281 -4.289062 23.125 -5.9375 C 23.769531 -7.59375 24.382812 -9.28125 24.96875 -11 C 25.332031 -12.132812 25.722656 -13.28125 26.140625 -14.4375 C 26.566406 -15.59375 26.984375 -16.738281 27.390625 -17.875 C 27.460938 -18.0625 27.546875 -18.253906 27.640625 -18.453125 C 27.734375 -18.648438 27.890625 -18.769531 28.109375 -18.8125 C 28.429688 -18.8125 28.765625 -18.789062 29.109375 -18.75 C 29.460938 -18.71875 29.785156 -18.609375 30.078125 -18.421875 C 30.191406 -18.347656 30.25 -18.25 30.25 -18.125 C 30.25 -18 30.226562 -17.859375 30.1875 -17.703125 C 30.113281 -17.410156 30.039062 -17.117188 29.96875 -16.828125 C 29.894531 -16.535156 29.820312 -16.242188 29.75 -15.953125 C 28.976562 -13.421875 28.160156 -10.925781 27.296875 -8.46875 C 26.441406 -6.007812 25.390625 -3.609375 24.140625 -1.265625 C 23.628906 -0.273438 23.050781 0.664062 22.40625 1.5625 C 21.769531 2.46875 21.046875 3.320312 20.234375 4.125 C 19.617188 4.75 18.757812 5.160156 17.65625 5.359375 C 16.550781 5.566406 15.476562 5.554688 14.4375 5.328125 C 13.394531 5.109375 12.613281 4.707031 12.09375 4.125 C 11.625 3.570312 11.203125 2.96875 10.828125 2.3125 C 10.023438 0.8125 9.457031 -0.757812 9.125 -2.40625 C 8.800781 -4.0625 8.617188 -5.734375 8.578125 -7.421875 C 8.546875 -13.804688 9.222656 -20.1875 10.609375 -26.5625 Z M 10.609375 -26.5625 "/></g></g></g><g fill="#a15a19" fill-opacity="1"><g transform="translate(212.088444, 234.05146)"><g><path d="M 7.640625 -5.171875 C 7.390625 -5.429688 7.125 -5.710938 6.84375 -6.015625 C 6.570312 -6.328125 6.21875 -6.613281 5.78125 -6.875 C 5.707031 -6.03125 5.640625 -5.210938 5.578125 -4.421875 C 5.523438 -3.640625 5.460938 -2.878906 5.390625 -2.140625 C 5.390625 -1.628906 5.378906 -1.125 5.359375 -0.625 C 5.335938 -0.132812 5.328125 0.347656 5.328125 0.828125 C 5.367188 1.453125 5.0625 1.765625 4.40625 1.765625 C 4.175781 1.765625 3.960938 1.765625 3.765625 1.765625 C 3.566406 1.765625 3.359375 1.765625 3.140625 1.765625 C 2.472656 1.765625 2.007812 1.753906 1.75 1.734375 C 1.5 1.710938 1.328125 1.5625 1.234375 1.28125 C 1.140625 1.007812 1.019531 0.488281 0.875 -0.28125 C 0.03125 -4.488281 -0.359375 -8.710938 -0.296875 -12.953125 C -0.242188 -17.191406 -0.109375 -21.4375 0.109375 -25.6875 C 0.222656 -27.738281 0.359375 -29.78125 0.515625 -31.8125 C 0.679688 -33.851562 0.894531 -35.878906 1.15625 -37.890625 C 1.1875 -38.335938 1.238281 -38.757812 1.3125 -39.15625 C 1.394531 -39.5625 1.472656 -39.96875 1.546875 -40.375 C 1.648438 -40.957031 1.992188 -41.269531 2.578125 -41.3125 C 3.128906 -41.3125 3.671875 -41.347656 4.203125 -41.421875 C 4.734375 -41.492188 5.273438 -41.53125 5.828125 -41.53125 C 6.484375 -41.53125 6.8125 -41.179688 6.8125 -40.484375 C 6.8125 -39.347656 6.8125 -38.191406 6.8125 -37.015625 C 6.8125 -35.835938 6.773438 -34.664062 6.703125 -33.5 C 6.628906 -31.957031 6.554688 -30.40625 6.484375 -28.84375 C 6.410156 -27.289062 6.335938 -25.707031 6.265625 -24.09375 C 6.554688 -24.195312 6.765625 -24.347656 6.890625 -24.546875 C 7.023438 -24.753906 7.164062 -24.953125 7.3125 -25.140625 C 7.976562 -26.015625 8.691406 -26.851562 9.453125 -27.65625 C 10.222656 -28.46875 11.101562 -29.164062 12.09375 -29.75 C 12.9375 -30.269531 13.804688 -30.644531 14.703125 -30.875 C 15.609375 -31.113281 16.554688 -31.144531 17.546875 -30.96875 C 18.753906 -30.75 19.722656 -30.222656 20.453125 -29.390625 C 21.191406 -28.566406 21.597656 -27.550781 21.671875 -26.34375 C 21.703125 -25.425781 21.625 -24.535156 21.4375 -23.671875 C 21.257812 -22.816406 20.929688 -21.96875 20.453125 -21.125 C 19.390625 -19.289062 18.113281 -17.675781 16.625 -16.28125 C 15.144531 -14.882812 13.398438 -13.765625 11.390625 -12.921875 C 10.867188 -12.703125 10.320312 -12.535156 9.75 -12.421875 C 9.1875 -12.316406 8.554688 -12.191406 7.859375 -12.046875 C 8.742188 -11.015625 9.523438 -9.957031 10.203125 -8.875 C 10.878906 -7.800781 11.660156 -6.820312 12.546875 -5.9375 C 14.554688 -3.851562 16.644531 -3.800781 18.8125 -5.78125 C 19.289062 -6.21875 19.722656 -6.691406 20.109375 -7.203125 C 20.492188 -7.710938 20.847656 -8.265625 21.171875 -8.859375 C 21.941406 -10.171875 22.640625 -11.539062 23.265625 -12.96875 C 23.890625 -14.40625 24.515625 -15.835938 25.140625 -17.265625 C 25.503906 -18.078125 25.867188 -18.5625 26.234375 -18.71875 C 26.597656 -18.882812 27.1875 -18.84375 28 -18.59375 C 28.46875 -18.445312 28.628906 -18.132812 28.484375 -17.65625 C 27.828125 -15.632812 27.066406 -13.648438 26.203125 -11.703125 C 25.347656 -9.765625 24.257812 -7.953125 22.9375 -6.265625 C 21.613281 -4.648438 20.0625 -3.519531 18.28125 -2.875 C 16.507812 -2.238281 14.6875 -2.113281 12.8125 -2.5 C 10.945312 -2.882812 9.222656 -3.773438 7.640625 -5.171875 Z M 14.1875 -27.5625 C 12.46875 -26.019531 11.046875 -24.273438 9.921875 -22.328125 C 8.804688 -20.390625 7.863281 -18.242188 7.09375 -15.890625 C 8.738281 -16.296875 10.1875 -16.851562 11.4375 -17.5625 C 12.6875 -18.28125 13.785156 -19.207031 14.734375 -20.34375 C 15.328125 -21.082031 15.890625 -21.835938 16.421875 -22.609375 C 16.953125 -23.378906 17.304688 -24.238281 17.484375 -25.1875 C 17.554688 -25.59375 17.609375 -25.992188 17.640625 -26.390625 C 17.679688 -26.796875 17.664062 -27.222656 17.59375 -27.671875 C 17.300781 -28.804688 16.644531 -29.097656 15.625 -28.546875 C 15.070312 -28.253906 14.59375 -27.925781 14.1875 -27.5625 Z M 14.1875 -27.5625 "/></g></g></g><g fill="#a15a19" fill-opacity="1"><g transform="translate(236.726656, 234.05146)"><g><path d="M 4.84375 -24.96875 C 4.507812 -25.007812 4.175781 -25.046875 3.84375 -25.078125 C 3.519531 -25.117188 3.15625 -25.175781 2.75 -25.25 C 3.082031 -26.164062 3.394531 -27.050781 3.6875 -27.90625 C 3.976562 -28.769531 4.179688 -29.644531 4.296875 -30.53125 C 4.296875 -30.851562 4.515625 -31.015625 4.953125 -31.015625 C 5.128906 -31.015625 5.328125 -31.015625 5.546875 -31.015625 C 5.773438 -31.015625 5.976562 -31.015625 6.15625 -31.015625 C 6.59375 -31.054688 6.832031 -30.859375 6.875 -30.421875 C 6.945312 -28.734375 6.707031 -27.15625 6.15625 -25.6875 C 5.90625 -25.0625 5.46875 -24.820312 4.84375 -24.96875 Z M 4.84375 -24.96875 "/></g></g></g><g fill="#a15a19" fill-opacity="1"><g transform="translate(246.350954, 234.05146)"><g><path d="M 5.4375 -24.03125 C 5.363281 -24.144531 5.289062 -24.265625 5.21875 -24.390625 C 5.144531 -24.515625 5.035156 -24.671875 4.890625 -24.859375 C 4.640625 -23.828125 4.429688 -22.832031 4.265625 -21.875 C 4.097656 -20.925781 3.921875 -19.992188 3.734375 -19.078125 C 3.117188 -15.742188 2.3125 -12.472656 1.3125 -9.265625 C 0.320312 -6.054688 -0.8125 -2.894531 -2.09375 0.21875 C -2.34375 0.914062 -2.597656 1.328125 -2.859375 1.453125 C -3.117188 1.585938 -3.5625 1.597656 -4.1875 1.484375 C -4.800781 1.367188 -5.019531 1.019531 -4.84375 0.4375 C -4.65625 -0.0390625 -4.488281 -0.523438 -4.34375 -1.015625 C -4.195312 -1.515625 -4.03125 -2.019531 -3.84375 -2.53125 C -2.53125 -6.382812 -1.429688 -10.289062 -0.546875 -14.25 C 0.328125 -18.207031 1.1875 -22.1875 2.03125 -26.1875 C 2.175781 -26.84375 2.320312 -27.5 2.46875 -28.15625 C 2.613281 -28.820312 2.765625 -29.460938 2.921875 -30.078125 C 3.390625 -32.023438 4.414062 -32.410156 6 -31.234375 C 7.09375 -30.390625 7.972656 -29.4375 8.640625 -28.375 C 9.953125 -26.25 11.1875 -24.066406 12.34375 -21.828125 C 13.5 -19.597656 14.460938 -17.269531 15.234375 -14.84375 C 15.453125 -14.226562 15.632812 -13.878906 15.78125 -13.796875 C 15.925781 -13.722656 16.332031 -13.816406 17 -14.078125 C 17.84375 -14.441406 18.664062 -14.828125 19.46875 -15.234375 C 20.28125 -15.640625 21.050781 -16.097656 21.78125 -16.609375 C 21.96875 -16.753906 22.160156 -16.890625 22.359375 -17.015625 C 22.554688 -17.148438 22.765625 -17.253906 22.984375 -17.328125 C 23.648438 -17.472656 24.09375 -17.289062 24.3125 -16.78125 C 24.414062 -16.550781 24.40625 -16.351562 24.28125 -16.1875 C 24.15625 -16.03125 24.019531 -15.878906 23.875 -15.734375 C 23.25 -15.285156 22.601562 -14.84375 21.9375 -14.40625 C 21.28125 -13.96875 20.601562 -13.582031 19.90625 -13.25 C 19.539062 -13.070312 19.164062 -12.898438 18.78125 -12.734375 C 18.394531 -12.566406 18.019531 -12.410156 17.65625 -12.265625 C 16.925781 -12.003906 16.515625 -11.789062 16.421875 -11.625 C 16.328125 -11.46875 16.351562 -11.039062 16.5 -10.34375 C 16.613281 -9.9375 16.695312 -9.519531 16.75 -9.09375 C 16.800781 -8.675781 16.863281 -8.265625 16.9375 -7.859375 C 17.082031 -7.054688 17.117188 -6.257812 17.046875 -5.46875 C 16.972656 -4.6875 16.847656 -3.890625 16.671875 -3.078125 C 16.222656 -1.429688 15.269531 -0.128906 13.8125 0.828125 C 12.519531 1.703125 11.164062 2.210938 9.75 2.359375 C 8.34375 2.503906 6.925781 2.320312 5.5 1.8125 C 4.21875 1.375 3.238281 0.679688 2.5625 -0.265625 C 1.882812 -1.222656 1.546875 -2.285156 1.546875 -3.453125 C 1.546875 -4.628906 1.925781 -5.769531 2.6875 -6.875 C 3.382812 -7.863281 4.203125 -8.671875 5.140625 -9.296875 C 6.078125 -9.921875 7.078125 -10.46875 8.140625 -10.9375 C 8.765625 -11.238281 9.195312 -11.476562 9.4375 -11.65625 C 9.675781 -11.84375 9.773438 -12.082031 9.734375 -12.375 C 9.703125 -12.664062 9.59375 -13.125 9.40625 -13.75 C 8.851562 -15.507812 8.226562 -17.238281 7.53125 -18.9375 C 6.832031 -20.644531 6.132812 -22.34375 5.4375 -24.03125 Z M 10.890625 -1.484375 C 11.078125 -1.992188 11.207031 -2.515625 11.28125 -3.046875 C 11.351562 -3.578125 11.390625 -4.066406 11.390625 -4.515625 C 11.390625 -5.359375 11.320312 -6.132812 11.1875 -6.84375 C 11.0625 -7.5625 10.90625 -8.269531 10.71875 -8.96875 C 10.613281 -9.550781 10.320312 -9.710938 9.84375 -9.453125 C 8.894531 -8.984375 8.035156 -8.414062 7.265625 -7.75 C 6.492188 -7.09375 5.90625 -6.25 5.5 -5.21875 C 5.164062 -4.269531 5.117188 -3.363281 5.359375 -2.5 C 5.597656 -1.632812 6.101562 -0.910156 6.875 -0.328125 C 7.675781 0.253906 8.453125 0.4375 9.203125 0.21875 C 9.960938 0 10.523438 -0.566406 10.890625 -1.484375 Z M 10.890625 -1.484375 "/></g></g></g><g clip-path="url(#2a790621a2)"><path fill="#a15a19" d="M 241.988281 286.167969 C 243.695312 289.226562 245.402344 292.214844 247.101562 295.132812 C 241.21875 295.96875 235.25 295.96875 229.367188 295.132812 C 229.367188 288.8125 229.367188 282.492188 229.367188 276.171875 C 235.25 277.007812 241.21875 277.007812 247.101562 276.171875 C 245.402344 279.570312 243.695312 282.902344 241.988281 286.167969 Z M 127.160156 276.171875 C 128.859375 279.570312 130.5625 282.902344 132.273438 286.167969 C 130.5625 289.226562 128.859375 292.214844 127.160156 295.132812 C 133.039062 295.96875 139.007812 295.96875 144.890625 295.132812 C 144.890625 288.8125 144.890625 282.492188 144.890625 276.171875 C 139.007812 277.007812 133.039062 277.007812 127.160156 276.171875 Z M 127.160156 276.171875 " fill-opacity="1" fill-rule="nonzero"/></g><g clip-path="url(#bf085daad1)"><path fill="#5e3209" d="M 236.480469 282.757812 L 236.480469 290.769531 L 229.367188 295.132812 L 229.367188 282.757812 Z M 137.777344 290.769531 L 144.890625 295.132812 L 144.890625 282.757812 L 137.777344 282.757812 Z M 137.777344 290.769531 " fill-opacity="1" fill-rule="nonzero"/></g><g clip-path="url(#073b793f91)"><path fill="#a15a19" d="M 236.480469 270.859375 C 236.480469 277.496094 236.480469 284.132812 236.480469 290.769531 C 203.78125 295.949219 170.476562 295.949219 137.777344 290.769531 C 137.777344 284.132812 137.777344 277.496094 137.777344 270.859375 C 170.476562 276.039062 203.78125 276.039062 236.480469 270.859375 Z M 236.480469 270.859375 " fill-opacity="1" fill-rule="nonzero"/></g><g fill="#a15a19" fill-opacity="1"><g transform="translate(140.335154, 262.857273)"><g><path d="M 6.78125 -0.984375 C 6.769531 -0.671875 6.742188 -0.4375 6.703125 -0.28125 C 6.660156 -0.132812 6.578125 -0.03125 6.453125 0.03125 C 6.335938 0.101562 6.148438 0.140625 5.890625 0.140625 C 5.578125 0.140625 5.335938 0.0703125 5.171875 -0.0625 C 5.015625 -0.195312 4.910156 -0.390625 4.859375 -0.640625 C 4.804688 -0.890625 4.78125 -1.222656 4.78125 -1.640625 L 4.796875 -2 C 4.804688 -2.082031 4.8125 -2.203125 4.8125 -2.359375 L 4.484375 -12.1875 C 4.296875 -12.164062 4.054688 -12.128906 3.765625 -12.078125 C 2.890625 -11.960938 2.242188 -11.90625 1.828125 -11.90625 C 1.441406 -11.90625 1.15625 -11.976562 0.96875 -12.125 C 0.789062 -12.28125 0.703125 -12.523438 0.703125 -12.859375 C 0.703125 -13.492188 0.835938 -13.929688 1.109375 -14.171875 C 1.390625 -14.421875 1.738281 -14.546875 2.15625 -14.546875 L 7.296875 -14.59375 L 9.234375 -14.71875 C 9.535156 -14.71875 9.773438 -14.59375 9.953125 -14.34375 C 10.140625 -14.101562 10.234375 -13.804688 10.234375 -13.453125 C 10.234375 -13.285156 10.179688 -13.078125 10.078125 -12.828125 C 9.984375 -12.585938 9.851562 -12.375 9.6875 -12.1875 C 9.53125 -12.007812 9.375 -11.921875 9.21875 -11.921875 C 9.09375 -11.921875 8.90625 -12.007812 8.65625 -12.1875 C 8.53125 -12.269531 8.421875 -12.332031 8.328125 -12.375 C 8.234375 -12.425781 8.144531 -12.453125 8.0625 -12.453125 C 7.21875 -12.453125 6.597656 -12.421875 6.203125 -12.359375 L 6.5625 -2.421875 C 6.664062 -1.753906 6.738281 -1.273438 6.78125 -0.984375 Z M 6.78125 -0.984375 "/></g></g></g><g fill="#a15a19" fill-opacity="1"><g transform="translate(150.965822, 262.857273)"><g><path d="M 9.765625 -2.796875 C 10.066406 -2.796875 10.289062 -2.703125 10.4375 -2.515625 C 10.59375 -2.328125 10.671875 -2.035156 10.671875 -1.640625 C 10.671875 -0.867188 10.117188 -0.359375 9.015625 -0.109375 C 7.910156 0.128906 6.820312 0.25 5.75 0.25 C 4.945312 0.25 4.171875 0.015625 3.421875 -0.453125 C 2.671875 -0.921875 2.0625 -1.554688 1.59375 -2.359375 C 1.132812 -3.171875 0.90625 -4.054688 0.90625 -5.015625 C 0.90625 -6.390625 1.128906 -7.601562 1.578125 -8.65625 C 2.023438 -9.71875 2.675781 -10.546875 3.53125 -11.140625 C 4.394531 -11.734375 5.414062 -12.03125 6.59375 -12.03125 C 7.21875 -12.03125 7.835938 -11.875 8.453125 -11.5625 C 9.066406 -11.25 9.570312 -10.796875 9.96875 -10.203125 C 10.375 -9.609375 10.578125 -8.910156 10.578125 -8.109375 C 10.578125 -7.691406 10.515625 -7.34375 10.390625 -7.0625 C 10.265625 -6.78125 10.097656 -6.601562 9.890625 -6.53125 L 2.5 -3.890625 C 2.75 -3.085938 3.257812 -2.5625 4.03125 -2.3125 C 4.8125 -2.070312 5.671875 -1.953125 6.609375 -1.953125 C 6.921875 -1.953125 7.234375 -1.992188 7.546875 -2.078125 C 7.859375 -2.171875 8.222656 -2.300781 8.640625 -2.46875 C 8.910156 -2.570312 9.132812 -2.648438 9.3125 -2.703125 C 9.488281 -2.765625 9.640625 -2.796875 9.765625 -2.796875 Z M 2.375 -5.75 C 2.988281 -5.914062 3.6875 -6.15625 4.46875 -6.46875 C 5.25 -6.78125 6.25 -7.1875 7.46875 -7.6875 C 8.289062 -8.03125 8.851562 -8.257812 9.15625 -8.375 C 8.9375 -8.84375 8.566406 -9.1875 8.046875 -9.40625 C 7.523438 -9.625 6.921875 -9.734375 6.234375 -9.734375 C 5.859375 -9.734375 5.390625 -9.585938 4.828125 -9.296875 C 4.265625 -9.015625 3.742188 -8.570312 3.265625 -7.96875 C 2.796875 -7.363281 2.5 -6.625 2.375 -5.75 Z M 2.375 -5.75 "/></g></g></g><g fill="#a15a19" fill-opacity="1"><g transform="translate(162.65833, 262.857273)"><g><path d="M 2.140625 -16.78125 C 2.148438 -17.007812 2.195312 -17.21875 2.28125 -17.40625 C 2.375 -17.59375 2.492188 -17.738281 2.640625 -17.84375 C 2.785156 -17.945312 2.921875 -18 3.046875 -18 C 3.148438 -18 3.265625 -17.945312 3.390625 -17.84375 C 3.523438 -17.75 3.640625 -17.601562 3.734375 -17.40625 C 3.828125 -17.21875 3.875 -17 3.875 -16.75 C 3.875 -15.445312 3.800781 -13.6875 3.65625 -11.46875 C 3.582031 -10.28125 3.523438 -9.257812 3.484375 -8.40625 C 3.453125 -7.5625 3.4375 -6.695312 3.4375 -5.8125 L 3.4375 -5.640625 L 8.1875 -11.84375 C 8.3125 -12.03125 8.445312 -12.179688 8.59375 -12.296875 C 8.75 -12.421875 8.894531 -12.484375 9.03125 -12.484375 C 9.375 -12.484375 9.609375 -12.394531 9.734375 -12.21875 C 9.867188 -12.050781 9.9375 -11.769531 9.9375 -11.375 L 9.9375 -11.25 C 9.9375 -10.9375 9.742188 -10.566406 9.359375 -10.140625 C 8.984375 -9.722656 8.4375 -9.1875 7.71875 -8.53125 L 7.078125 -7.953125 C 7.191406 -7.691406 7.3125 -7.394531 7.4375 -7.0625 C 7.5625 -6.726562 7.640625 -6.503906 7.671875 -6.390625 C 7.929688 -5.648438 8.175781 -5.035156 8.40625 -4.546875 C 8.59375 -4.097656 8.796875 -3.691406 9.015625 -3.328125 C 9.191406 -3.023438 9.375 -2.664062 9.5625 -2.25 C 9.570312 -2.207031 9.609375 -2.109375 9.671875 -1.953125 C 9.734375 -1.796875 9.789062 -1.628906 9.84375 -1.453125 C 9.90625 -1.273438 9.9375 -1.132812 9.9375 -1.03125 C 9.9375 -0.644531 9.828125 -0.316406 9.609375 -0.046875 C 9.390625 0.222656 9.132812 0.359375 8.84375 0.359375 C 8.65625 0.359375 8.492188 0.28125 8.359375 0.125 C 8.234375 -0.03125 8.132812 -0.269531 8.0625 -0.59375 C 8.0625 -0.5625 7.898438 -0.945312 7.578125 -1.75 C 7.253906 -2.5625 6.65625 -4.144531 5.78125 -6.5 L 3.4375 -3.671875 C 3.4375 -3.171875 3.441406 -2.78125 3.453125 -2.5 L 3.46875 -1.203125 C 3.46875 -0.867188 3.375 -0.554688 3.1875 -0.265625 C 3.007812 0.0234375 2.78125 0.171875 2.5 0.171875 C 2.289062 0.171875 2.113281 0.0976562 1.96875 -0.046875 C 1.832031 -0.191406 1.734375 -0.363281 1.671875 -0.5625 C 1.609375 -0.757812 1.578125 -0.941406 1.578125 -1.109375 L 1.59375 -2.140625 C 1.59375 -2.554688 1.628906 -3.039062 1.703125 -3.59375 C 1.742188 -3.851562 1.769531 -4.113281 1.78125 -4.375 Z M 2.140625 -16.78125 "/></g></g></g><g fill="#a15a19" fill-opacity="1"><g transform="translate(173.56971, 262.857273)"><g><path d="M 9.765625 -2.796875 C 10.066406 -2.796875 10.289062 -2.703125 10.4375 -2.515625 C 10.59375 -2.328125 10.671875 -2.035156 10.671875 -1.640625 C 10.671875 -0.867188 10.117188 -0.359375 9.015625 -0.109375 C 7.910156 0.128906 6.820312 0.25 5.75 0.25 C 4.945312 0.25 4.171875 0.015625 3.421875 -0.453125 C 2.671875 -0.921875 2.0625 -1.554688 1.59375 -2.359375 C 1.132812 -3.171875 0.90625 -4.054688 0.90625 -5.015625 C 0.90625 -6.390625 1.128906 -7.601562 1.578125 -8.65625 C 2.023438 -9.71875 2.675781 -10.546875 3.53125 -11.140625 C 4.394531 -11.734375 5.414062 -12.03125 6.59375 -12.03125 C 7.21875 -12.03125 7.835938 -11.875 8.453125 -11.5625 C 9.066406 -11.25 9.570312 -10.796875 9.96875 -10.203125 C 10.375 -9.609375 10.578125 -8.910156 10.578125 -8.109375 C 10.578125 -7.691406 10.515625 -7.34375 10.390625 -7.0625 C 10.265625 -6.78125 10.097656 -6.601562 9.890625 -6.53125 L 2.5 -3.890625 C 2.75 -3.085938 3.257812 -2.5625 4.03125 -2.3125 C 4.8125 -2.070312 5.671875 -1.953125 6.609375 -1.953125 C 6.921875 -1.953125 7.234375 -1.992188 7.546875 -2.078125 C 7.859375 -2.171875 8.222656 -2.300781 8.640625 -2.46875 C 8.910156 -2.570312 9.132812 -2.648438 9.3125 -2.703125 C 9.488281 -2.765625 9.640625 -2.796875 9.765625 -2.796875 Z M 2.375 -5.75 C 2.988281 -5.914062 3.6875 -6.15625 4.46875 -6.46875 C 5.25 -6.78125 6.25 -7.1875 7.46875 -7.6875 C 8.289062 -8.03125 8.851562 -8.257812 9.15625 -8.375 C 8.9375 -8.84375 8.566406 -9.1875 8.046875 -9.40625 C 7.523438 -9.625 6.921875 -9.734375 6.234375 -9.734375 C 5.859375 -9.734375 5.390625 -9.585938 4.828125 -9.296875 C 4.265625 -9.015625 3.742188 -8.570312 3.265625 -7.96875 C 2.796875 -7.363281 2.5 -6.625 2.375 -5.75 Z M 2.375 -5.75 "/></g></g></g><g fill="#a15a19" fill-opacity="1"><g transform="translate(185.262218, 262.857273)"><g><path d="M 9.453125 -4.6875 C 9.453125 -5.976562 9.25 -7.09375 8.84375 -8.03125 C 8.4375 -8.976562 7.65625 -9.453125 6.5 -9.453125 C 6.15625 -9.453125 5.757812 -9.347656 5.3125 -9.140625 C 4.875 -8.941406 4.445312 -8.664062 4.03125 -8.3125 C 3.613281 -7.957031 3.273438 -7.570312 3.015625 -7.15625 C 3.015625 -6.875 3.003906 -6.410156 2.984375 -5.765625 C 2.972656 -5.140625 2.96875 -4.710938 2.96875 -4.484375 C 2.96875 -4.234375 2.984375 -3.984375 3.015625 -3.734375 C 3.046875 -3.492188 3.09375 -3.203125 3.15625 -2.859375 C 3.207031 -2.597656 3.25 -2.328125 3.28125 -2.046875 C 3.320312 -1.765625 3.34375 -1.5 3.34375 -1.25 C 3.34375 -0.789062 3.289062 -0.441406 3.1875 -0.203125 C 3.082031 0.0234375 2.851562 0.140625 2.5 0.140625 C 2.15625 0.140625 1.875 0.046875 1.65625 -0.140625 C 1.445312 -0.335938 1.351562 -0.734375 1.375 -1.328125 L 1.421875 -6.109375 C 1.328125 -7.265625 1.28125 -8.0625 1.28125 -8.5 L 1.28125 -8.859375 C 1.28125 -9.578125 1.347656 -10.234375 1.484375 -10.828125 C 1.628906 -11.421875 1.851562 -11.71875 2.15625 -11.71875 C 2.78125 -11.71875 3.09375 -11.1875 3.09375 -10.125 C 3.09375 -9.945312 3.066406 -9.609375 3.015625 -9.109375 L 2.984375 -8.796875 C 3.160156 -9.421875 3.484375 -9.960938 3.953125 -10.421875 C 4.421875 -10.878906 4.925781 -11.222656 5.46875 -11.453125 C 6.019531 -11.679688 6.488281 -11.796875 6.875 -11.796875 C 8.40625 -11.796875 9.488281 -11.171875 10.125 -9.921875 C 10.769531 -8.671875 11.09375 -7.148438 11.09375 -5.359375 C 11.09375 -3.703125 11.015625 -2.332031 10.859375 -1.25 C 10.703125 -0.175781 10.382812 0.359375 9.90625 0.359375 C 9.695312 0.359375 9.523438 0.332031 9.390625 0.28125 C 9.265625 0.226562 9.160156 0.101562 9.078125 -0.09375 C 8.992188 -0.300781 8.953125 -0.613281 8.953125 -1.03125 C 8.953125 -1.289062 8.972656 -1.550781 9.015625 -1.8125 C 9.054688 -2.070312 9.117188 -2.398438 9.203125 -2.796875 C 9.296875 -3.242188 9.359375 -3.597656 9.390625 -3.859375 C 9.429688 -4.117188 9.453125 -4.394531 9.453125 -4.6875 Z M 9.453125 -4.6875 "/></g></g></g><g fill="#a15a19" fill-opacity="1"><g transform="translate(197.528373, 262.857273)"><g><path d="M 2.90625 -9.234375 C 2.78125 -9.234375 2.585938 -9.226562 2.328125 -9.21875 C 2.035156 -9.195312 1.789062 -9.1875 1.59375 -9.1875 C 1.476562 -9.1875 1.335938 -9.234375 1.171875 -9.328125 C 1.003906 -9.429688 0.859375 -9.570312 0.734375 -9.75 C 0.609375 -9.925781 0.546875 -10.128906 0.546875 -10.359375 C 0.546875 -10.585938 0.597656 -10.800781 0.703125 -11 C 0.804688 -11.195312 0.9375 -11.351562 1.09375 -11.46875 C 1.25 -11.59375 1.414062 -11.65625 1.59375 -11.65625 C 1.851562 -11.65625 2.332031 -11.628906 3.03125 -11.578125 C 3.050781 -12.585938 3.140625 -13.546875 3.296875 -14.453125 C 3.460938 -15.367188 3.769531 -15.828125 4.21875 -15.828125 C 4.320312 -15.828125 4.429688 -15.773438 4.546875 -15.671875 C 4.660156 -15.578125 4.753906 -15.441406 4.828125 -15.265625 C 4.910156 -15.085938 4.953125 -14.898438 4.953125 -14.703125 C 4.953125 -13.835938 4.90625 -13.054688 4.8125 -12.359375 L 4.765625 -12.046875 L 4.65625 -11.546875 C 4.957031 -11.546875 5.304688 -11.550781 5.703125 -11.5625 C 6.097656 -11.570312 6.398438 -11.578125 6.609375 -11.578125 C 7.265625 -11.609375 7.914062 -11.625 8.5625 -11.625 C 8.800781 -11.625 8.972656 -11.484375 9.078125 -11.203125 C 9.179688 -10.921875 9.234375 -10.617188 9.234375 -10.296875 C 9.234375 -9.960938 9.144531 -9.691406 8.96875 -9.484375 C 8.800781 -9.285156 8.613281 -9.1875 8.40625 -9.1875 L 4.65625 -9.234375 L 4.640625 -8.125 C 4.617188 -7.4375 4.609375 -6.691406 4.609375 -5.890625 C 4.609375 -4.765625 4.703125 -3.875 4.890625 -3.21875 C 5.078125 -2.570312 5.445312 -2.25 6 -2.25 C 6.457031 -2.25 7.03125 -2.492188 7.71875 -2.984375 C 7.863281 -3.078125 7.941406 -3.125 7.953125 -3.125 C 8.148438 -3.125 8.285156 -3.066406 8.359375 -2.953125 C 8.429688 -2.835938 8.46875 -2.640625 8.46875 -2.359375 C 8.46875 -2.015625 8.328125 -1.648438 8.046875 -1.265625 C 7.773438 -0.878906 7.445312 -0.550781 7.0625 -0.28125 C 6.6875 -0.0078125 6.351562 0.125 6.0625 0.125 C 5.144531 0.125 4.460938 -0.195312 4.015625 -0.84375 C 3.578125 -1.488281 3.300781 -2.265625 3.1875 -3.171875 C 3.082031 -4.078125 3.019531 -5.25 3 -6.6875 C 3 -7.820312 2.96875 -8.671875 2.90625 -9.234375 Z M 2.90625 -9.234375 "/></g></g></g><g fill="#a15a19" fill-opacity="1"><g transform="translate(207.341292, 262.857273)"><g><path d="M 5.828125 0.28125 C 4.972656 0.28125 4.164062 -0.0195312 3.40625 -0.625 C 2.65625 -1.226562 2.050781 -1.988281 1.59375 -2.90625 C 1.144531 -3.832031 0.921875 -4.742188 0.921875 -5.640625 C 0.921875 -7.054688 1.164062 -8.222656 1.65625 -9.140625 C 2.15625 -10.054688 2.796875 -10.722656 3.578125 -11.140625 C 4.367188 -11.566406 5.21875 -11.78125 6.125 -11.78125 C 7.09375 -11.78125 7.925781 -11.53125 8.625 -11.03125 C 9.332031 -10.53125 9.867188 -9.816406 10.234375 -8.890625 C 10.609375 -7.960938 10.796875 -6.878906 10.796875 -5.640625 C 10.796875 -4.503906 10.5625 -3.484375 10.09375 -2.578125 C 9.625 -1.679688 9.007812 -0.976562 8.25 -0.46875 C 7.488281 0.03125 6.679688 0.28125 5.828125 0.28125 Z M 9.1875 -5.75 C 9.1875 -6.476562 9.066406 -7.117188 8.828125 -7.671875 C 8.585938 -8.234375 8.253906 -8.671875 7.828125 -8.984375 C 7.410156 -9.296875 6.941406 -9.453125 6.421875 -9.453125 C 5.773438 -9.453125 5.148438 -9.316406 4.546875 -9.046875 C 3.953125 -8.773438 3.460938 -8.367188 3.078125 -7.828125 C 2.691406 -7.296875 2.5 -6.648438 2.5 -5.890625 C 2.5 -5.253906 2.65625 -4.632812 2.96875 -4.03125 C 3.28125 -3.425781 3.679688 -2.929688 4.171875 -2.546875 C 4.671875 -2.171875 5.1875 -1.984375 5.71875 -1.984375 C 6.3125 -1.984375 6.875 -2.132812 7.40625 -2.4375 C 7.945312 -2.738281 8.378906 -3.171875 8.703125 -3.734375 C 9.023438 -4.304688 9.1875 -4.976562 9.1875 -5.75 Z M 9.1875 -5.75 "/></g></g></g><g fill="#a15a19" fill-opacity="1"><g transform="translate(219.155851, 262.857273)"><g><path d="M 5.828125 0.28125 C 4.972656 0.28125 4.164062 -0.0195312 3.40625 -0.625 C 2.65625 -1.226562 2.050781 -1.988281 1.59375 -2.90625 C 1.144531 -3.832031 0.921875 -4.742188 0.921875 -5.640625 C 0.921875 -7.054688 1.164062 -8.222656 1.65625 -9.140625 C 2.15625 -10.054688 2.796875 -10.722656 3.578125 -11.140625 C 4.367188 -11.566406 5.21875 -11.78125 6.125 -11.78125 C 7.09375 -11.78125 7.925781 -11.53125 8.625 -11.03125 C 9.332031 -10.53125 9.867188 -9.816406 10.234375 -8.890625 C 10.609375 -7.960938 10.796875 -6.878906 10.796875 -5.640625 C 10.796875 -4.503906 10.5625 -3.484375 10.09375 -2.578125 C 9.625 -1.679688 9.007812 -0.976562 8.25 -0.46875 C 7.488281 0.03125 6.679688 0.28125 5.828125 0.28125 Z M 9.1875 -5.75 C 9.1875 -6.476562 9.066406 -7.117188 8.828125 -7.671875 C 8.585938 -8.234375 8.253906 -8.671875 7.828125 -8.984375 C 7.410156 -9.296875 6.941406 -9.453125 6.421875 -9.453125 C 5.773438 -9.453125 5.148438 -9.316406 4.546875 -9.046875 C 3.953125 -8.773438 3.460938 -8.367188 3.078125 -7.828125 C 2.691406 -7.296875 2.5 -6.648438 2.5 -5.890625 C 2.5 -5.253906 2.65625 -4.632812 2.96875 -4.03125 C 3.28125 -3.425781 3.679688 -2.929688 4.171875 -2.546875 C 4.671875 -2.171875 5.1875 -1.984375 5.71875 -1.984375 C 6.3125 -1.984375 6.875 -2.132812 7.40625 -2.4375 C 7.945312 -2.738281 8.378906 -3.171875 8.703125 -3.734375 C 9.023438 -4.304688 9.1875 -4.976562 9.1875 -5.75 Z M 9.1875 -5.75 "/></g></g></g><g fill="#a15a19" fill-opacity="1"><g transform="translate(230.97041, 262.857273)"><g><path d="M 5.28125 -2.78125 C 5.5 -2.78125 5.664062 -2.664062 5.78125 -2.4375 C 5.90625 -2.207031 5.96875 -1.941406 5.96875 -1.640625 C 5.96875 -1.316406 5.867188 -1.023438 5.671875 -0.765625 C 5.484375 -0.503906 5.25 -0.300781 4.96875 -0.15625 C 4.695312 -0.0078125 4.453125 0.0625 4.234375 0.0625 C 3.441406 0.0625 2.859375 -0.191406 2.484375 -0.703125 C 2.117188 -1.222656 1.941406 -1.976562 1.953125 -2.96875 L 2.109375 -16.359375 C 2.109375 -16.890625 2.179688 -17.320312 2.328125 -17.65625 C 2.472656 -17.988281 2.703125 -18.15625 3.015625 -18.15625 C 3.222656 -18.15625 3.390625 -18.035156 3.515625 -17.796875 C 3.648438 -17.554688 3.71875 -17.296875 3.71875 -17.015625 L 3.5625 -5.28125 L 3.5625 -4.875 C 3.5625 -4.101562 3.613281 -3.460938 3.71875 -2.953125 C 3.832031 -2.453125 4.015625 -2.203125 4.265625 -2.203125 C 4.367188 -2.203125 4.457031 -2.226562 4.53125 -2.28125 C 4.601562 -2.332031 4.6875 -2.40625 4.78125 -2.5 C 4.882812 -2.601562 4.96875 -2.675781 5.03125 -2.71875 C 5.101562 -2.757812 5.1875 -2.78125 5.28125 -2.78125 Z M 5.28125 -2.78125 "/></g></g></g><g fill="#f5efeb" fill-opacity="1"><g transform="translate(148.097261, 285.756298)"><g><path d="M 0.796875 -1.125 C 0.628906 -1.414062 0.5625 -1.660156 0.59375 -1.859375 C 0.625 -2.054688 0.832031 -2.296875 1.21875 -2.578125 C 1.445312 -2.742188 1.671875 -2.804688 1.890625 -2.765625 C 2.117188 -2.734375 2.398438 -2.484375 2.734375 -2.015625 C 2.828125 -1.859375 2.960938 -1.703125 3.140625 -1.546875 C 3.328125 -1.398438 3.503906 -1.316406 3.671875 -1.296875 C 4.410156 -1.171875 4.832031 -1.410156 4.9375 -2.015625 C 4.957031 -2.191406 4.878906 -2.351562 4.703125 -2.5 C 4.523438 -2.65625 4.289062 -2.785156 4 -2.890625 C 3.707031 -3.003906 3.394531 -3.148438 3.0625 -3.328125 C 2.738281 -3.503906 2.4375 -3.695312 2.15625 -3.90625 C 1.882812 -4.113281 1.675781 -4.414062 1.53125 -4.8125 C 1.394531 -5.207031 1.363281 -5.65625 1.4375 -6.15625 C 1.550781 -6.851562 1.90625 -7.421875 2.5 -7.859375 C 3.101562 -8.296875 3.851562 -8.441406 4.75 -8.296875 C 5.226562 -8.222656 5.648438 -8.09375 6.015625 -7.90625 C 6.390625 -7.71875 6.640625 -7.550781 6.765625 -7.40625 L 7.015625 -7.140625 C 7.222656 -6.867188 7.3125 -6.648438 7.28125 -6.484375 C 7.257812 -6.328125 7.132812 -6.132812 6.90625 -5.90625 C 6.582031 -5.539062 6.273438 -5.378906 5.984375 -5.421875 C 5.816406 -5.453125 5.625 -5.570312 5.40625 -5.78125 C 5.394531 -5.789062 5.359375 -5.832031 5.296875 -5.90625 C 5.242188 -5.976562 5.1875 -6.039062 5.125 -6.09375 C 4.976562 -6.207031 4.773438 -6.285156 4.515625 -6.328125 C 4.265625 -6.367188 4.039062 -6.34375 3.84375 -6.25 C 3.65625 -6.15625 3.546875 -6 3.515625 -5.78125 C 3.484375 -5.5625 3.554688 -5.367188 3.734375 -5.203125 C 3.910156 -5.046875 4.144531 -4.921875 4.4375 -4.828125 C 4.738281 -4.734375 5.054688 -4.609375 5.390625 -4.453125 C 5.734375 -4.296875 6.039062 -4.117188 6.3125 -3.921875 C 6.59375 -3.734375 6.804688 -3.445312 6.953125 -3.0625 C 7.109375 -2.6875 7.144531 -2.238281 7.0625 -1.71875 C 6.976562 -1.207031 6.800781 -0.769531 6.53125 -0.40625 C 6.257812 -0.0507812 5.941406 0.203125 5.578125 0.359375 C 4.867188 0.679688 4.148438 0.785156 3.421875 0.671875 C 3.054688 0.609375 2.710938 0.503906 2.390625 0.359375 C 2.078125 0.210938 1.832031 0.0546875 1.65625 -0.109375 C 1.269531 -0.421875 1.007812 -0.710938 0.875 -0.984375 Z M 0.796875 -1.125 "/></g></g></g><g fill="#f5efeb" fill-opacity="1"><g transform="translate(156.312027, 287.011612)"><g><path d="M 1.484375 -7.609375 C 1.503906 -7.796875 1.523438 -7.9375 1.546875 -8.03125 C 1.566406 -8.125 1.617188 -8.21875 1.703125 -8.3125 C 1.835938 -8.519531 2.15625 -8.585938 2.65625 -8.515625 C 3.21875 -8.441406 3.535156 -8.257812 3.609375 -7.96875 C 3.628906 -7.820312 3.625 -7.613281 3.59375 -7.34375 L 2.734375 -0.71875 C 2.703125 -0.53125 2.671875 -0.390625 2.640625 -0.296875 C 2.617188 -0.210938 2.570312 -0.117188 2.5 -0.015625 C 2.351562 0.191406 2.023438 0.265625 1.515625 0.203125 C 0.972656 0.128906 0.671875 -0.0625 0.609375 -0.375 C 0.578125 -0.507812 0.582031 -0.710938 0.625 -0.984375 Z M 1.484375 -7.609375 "/></g></g></g><g fill="#f5efeb" fill-opacity="1"><g transform="translate(160.68663, 287.602928)"><g><path d="M 6.953125 -7.78125 C 7.046875 -7.914062 7.171875 -8 7.328125 -8.03125 C 7.484375 -8.0625 7.675781 -8.066406 7.90625 -8.046875 C 8.132812 -8.023438 8.316406 -7.984375 8.453125 -7.921875 C 8.585938 -7.867188 8.6875 -7.8125 8.75 -7.75 C 8.8125 -7.695312 8.851562 -7.613281 8.875 -7.5 C 8.90625 -7.375 8.90625 -7.171875 8.875 -6.890625 L 8.234375 -0.265625 C 8.210938 -0.0664062 8.191406 0.0703125 8.171875 0.15625 C 8.148438 0.238281 8.101562 0.335938 8.03125 0.453125 C 7.894531 0.660156 7.570312 0.738281 7.0625 0.6875 C 6.75 0.65625 6.535156 0.609375 6.421875 0.546875 C 6.304688 0.492188 6.210938 0.410156 6.140625 0.296875 C 4.578125 -2.273438 3.550781 -3.945312 3.0625 -4.71875 L 2.6875 -0.8125 C 2.664062 -0.613281 2.644531 -0.46875 2.625 -0.375 C 2.601562 -0.289062 2.550781 -0.195312 2.46875 -0.09375 C 2.34375 0.113281 2.03125 0.195312 1.53125 0.15625 C 1.03125 0.101562 0.734375 -0.0351562 0.640625 -0.265625 C 0.585938 -0.390625 0.5625 -0.5 0.5625 -0.59375 C 0.5625 -0.695312 0.570312 -0.835938 0.59375 -1.015625 L 1.234375 -7.6875 C 1.265625 -7.988281 1.320312 -8.203125 1.40625 -8.328125 C 1.5 -8.460938 1.625 -8.546875 1.78125 -8.578125 C 1.9375 -8.609375 2.132812 -8.609375 2.375 -8.578125 C 2.613281 -8.554688 2.796875 -8.519531 2.921875 -8.46875 C 3.054688 -8.414062 3.148438 -8.351562 3.203125 -8.28125 C 3.234375 -8.257812 3.3125 -8.15625 3.4375 -7.96875 C 4.90625 -5.519531 5.882812 -3.894531 6.375 -3.09375 L 6.765625 -7.140625 C 6.796875 -7.441406 6.859375 -7.65625 6.953125 -7.78125 Z M 6.953125 -7.78125 "/></g></g></g><g fill="#f5efeb" fill-opacity="1"><g transform="translate(170.659252, 288.539964)"><g><path d="M 6.078125 -1.96875 L 6.296875 -2.125 C 6.578125 -2.269531 6.773438 -2.34375 6.890625 -2.34375 C 7.140625 -2.320312 7.398438 -2.082031 7.671875 -1.625 C 7.835938 -1.332031 7.914062 -1.101562 7.90625 -0.9375 C 7.894531 -0.769531 7.832031 -0.628906 7.71875 -0.515625 C 7.601562 -0.410156 7.46875 -0.316406 7.3125 -0.234375 C 7.164062 -0.160156 7.023438 -0.0859375 6.890625 -0.015625 C 6.753906 0.0546875 6.476562 0.144531 6.0625 0.25 C 5.644531 0.363281 5.25 0.410156 4.875 0.390625 C 4.5 0.367188 4.117188 0.296875 3.734375 0.171875 C 3.359375 0.046875 2.96875 -0.140625 2.5625 -0.390625 C 2.164062 -0.648438 1.8125 -0.957031 1.5 -1.3125 C 1.195312 -1.675781 0.953125 -2.128906 0.765625 -2.671875 C 0.578125 -3.210938 0.5 -3.796875 0.53125 -4.421875 C 0.570312 -5.046875 0.707031 -5.601562 0.9375 -6.09375 C 1.175781 -6.59375 1.460938 -6.992188 1.796875 -7.296875 C 2.140625 -7.609375 2.523438 -7.867188 2.953125 -8.078125 C 3.773438 -8.460938 4.582031 -8.632812 5.375 -8.59375 C 5.738281 -8.570312 6.109375 -8.492188 6.484375 -8.359375 C 6.859375 -8.222656 7.144531 -8.09375 7.34375 -7.96875 L 7.625 -7.78125 C 7.769531 -7.675781 7.875 -7.597656 7.9375 -7.546875 C 8.144531 -7.367188 8.238281 -7.171875 8.21875 -6.953125 C 8.207031 -6.742188 8.113281 -6.53125 7.9375 -6.3125 C 7.601562 -5.882812 7.3125 -5.679688 7.0625 -5.703125 C 6.925781 -5.703125 6.726562 -5.800781 6.46875 -6 C 6.144531 -6.289062 5.707031 -6.445312 5.15625 -6.46875 C 4.632812 -6.5 4.113281 -6.351562 3.59375 -6.03125 C 3.351562 -5.863281 3.140625 -5.625 2.953125 -5.3125 C 2.773438 -5.007812 2.675781 -4.65625 2.65625 -4.25 C 2.632812 -3.851562 2.695312 -3.488281 2.84375 -3.15625 C 2.988281 -2.820312 3.179688 -2.5625 3.421875 -2.375 C 3.890625 -1.988281 4.382812 -1.78125 4.90625 -1.75 C 5.15625 -1.738281 5.390625 -1.757812 5.609375 -1.8125 C 5.828125 -1.863281 5.984375 -1.914062 6.078125 -1.96875 Z M 6.078125 -1.96875 "/></g></g></g><g fill="#f5efeb" fill-opacity="1"><g transform="translate(180.162567, 289.019158)"><g><path d="M 2.640625 -2.09375 L 6.328125 -2.046875 C 6.515625 -2.046875 6.65625 -2.035156 6.75 -2.015625 C 6.84375 -2.003906 6.945312 -1.960938 7.0625 -1.890625 C 7.269531 -1.785156 7.375 -1.476562 7.375 -0.96875 C 7.363281 -0.40625 7.207031 -0.078125 6.90625 0.015625 C 6.769531 0.0546875 6.5625 0.078125 6.28125 0.078125 L 1.53125 0.015625 C 0.976562 0.015625 0.648438 -0.140625 0.546875 -0.453125 C 0.515625 -0.578125 0.5 -0.78125 0.5 -1.0625 L 0.578125 -7.734375 C 0.585938 -8.148438 0.664062 -8.425781 0.8125 -8.5625 C 0.96875 -8.707031 1.257812 -8.78125 1.6875 -8.78125 L 6.40625 -8.71875 C 6.59375 -8.71875 6.734375 -8.707031 6.828125 -8.6875 C 6.921875 -8.675781 7.023438 -8.632812 7.140625 -8.5625 C 7.359375 -8.457031 7.460938 -8.148438 7.453125 -7.640625 C 7.453125 -7.078125 7.296875 -6.75 6.984375 -6.65625 C 6.847656 -6.613281 6.640625 -6.59375 6.359375 -6.59375 L 2.6875 -6.640625 L 2.671875 -5.421875 L 5.046875 -5.390625 C 5.222656 -5.390625 5.359375 -5.378906 5.453125 -5.359375 C 5.546875 -5.347656 5.65625 -5.3125 5.78125 -5.25 C 5.988281 -5.132812 6.09375 -4.820312 6.09375 -4.3125 C 6.082031 -3.75 5.925781 -3.421875 5.625 -3.328125 C 5.488281 -3.296875 5.28125 -3.28125 5 -3.28125 L 2.65625 -3.3125 Z M 2.640625 -2.09375 "/></g></g></g><g fill="#f5efeb" fill-opacity="1"><g transform="translate(189.138111, 289.07997)"><g/></g></g><g fill="#f5efeb" fill-opacity="1"><g transform="translate(193.491015, 289.018506)"><g><path d="M 5.984375 -2.390625 C 6.304688 -2.398438 6.535156 -2.367188 6.671875 -2.296875 C 6.816406 -2.234375 6.914062 -2.125 6.96875 -1.96875 C 7.03125 -1.820312 7.066406 -1.617188 7.078125 -1.359375 C 7.085938 -1.109375 7.066406 -0.90625 7.015625 -0.75 C 6.972656 -0.59375 6.898438 -0.488281 6.796875 -0.4375 C 6.617188 -0.320312 6.367188 -0.257812 6.046875 -0.25 L 1.359375 -0.03125 C 1.066406 -0.0195312 0.8125 -0.117188 0.59375 -0.328125 C 0.375 -0.535156 0.257812 -0.785156 0.25 -1.078125 C 0.226562 -1.503906 0.359375 -1.90625 0.640625 -2.28125 C 0.929688 -2.664062 1.28125 -2.992188 1.6875 -3.265625 C 2.101562 -3.546875 2.515625 -3.820312 2.921875 -4.09375 C 3.335938 -4.363281 3.6875 -4.664062 3.96875 -5 C 4.257812 -5.34375 4.394531 -5.691406 4.375 -6.046875 C 4.375 -6.117188 4.335938 -6.21875 4.265625 -6.34375 C 4.203125 -6.476562 4.132812 -6.582031 4.0625 -6.65625 C 4 -6.738281 3.894531 -6.8125 3.75 -6.875 C 3.601562 -6.9375 3.398438 -6.960938 3.140625 -6.953125 C 2.890625 -6.941406 2.675781 -6.835938 2.5 -6.640625 C 2.320312 -6.441406 2.222656 -6.253906 2.203125 -6.078125 L 2.15625 -5.796875 L 2.171875 -5.71875 C 2.171875 -5.550781 2.164062 -5.421875 2.15625 -5.328125 C 2.15625 -5.242188 2.128906 -5.144531 2.078125 -5.03125 C 1.960938 -4.820312 1.65625 -4.707031 1.15625 -4.6875 C 0.59375 -4.664062 0.25 -4.804688 0.125 -5.109375 C 0.0820312 -5.234375 0.0507812 -5.4375 0.03125 -5.71875 C 0 -6.550781 0.265625 -7.304688 0.828125 -7.984375 C 1.398438 -8.660156 2.164062 -9.019531 3.125 -9.0625 C 4.09375 -9.113281 4.890625 -8.820312 5.515625 -8.1875 C 6.148438 -7.550781 6.488281 -6.804688 6.53125 -5.953125 C 6.550781 -5.492188 6.46875 -5.054688 6.28125 -4.640625 C 6.101562 -4.222656 5.878906 -3.882812 5.609375 -3.625 C 5.046875 -3.0625 4.53125 -2.679688 4.0625 -2.484375 L 3.78125 -2.34375 L 3.78125 -2.28125 Z M 5.984375 -2.390625 "/></g></g></g><g fill="#f5efeb" fill-opacity="1"><g transform="translate(202.145098, 288.597456)"><g><path d="M 0.5625 -7.84375 C 0.769531 -8.1875 1.066406 -8.484375 1.453125 -8.734375 C 1.847656 -8.992188 2.320312 -9.144531 2.875 -9.1875 C 3.425781 -9.238281 3.921875 -9.175781 4.359375 -9 C 4.796875 -8.820312 5.144531 -8.578125 5.40625 -8.265625 C 5.664062 -7.960938 5.878906 -7.609375 6.046875 -7.203125 C 6.347656 -6.515625 6.535156 -5.765625 6.609375 -4.953125 C 6.722656 -3.515625 6.507812 -2.347656 5.96875 -1.453125 C 5.769531 -1.109375 5.46875 -0.8125 5.0625 -0.5625 C 4.664062 -0.320312 4.195312 -0.175781 3.65625 -0.125 C 3.113281 -0.0820312 2.625 -0.148438 2.1875 -0.328125 C 1.75 -0.503906 1.398438 -0.738281 1.140625 -1.03125 C 0.878906 -1.332031 0.65625 -1.6875 0.46875 -2.09375 C 0.175781 -2.757812 -0.00390625 -3.53125 -0.078125 -4.40625 C -0.140625 -5.207031 -0.101562 -5.894531 0.03125 -6.46875 C 0.175781 -7.050781 0.351562 -7.507812 0.5625 -7.84375 Z M 3.453125 -2.28125 C 4.273438 -2.34375 4.625 -3.148438 4.5 -4.703125 L 4.484375 -4.78125 C 4.347656 -6.375 3.867188 -7.132812 3.046875 -7.0625 C 2.234375 -7 1.894531 -6.164062 2.03125 -4.5625 C 2.164062 -2.96875 2.640625 -2.207031 3.453125 -2.28125 Z M 3.453125 -2.28125 "/></g></g></g><g fill="#f5efeb" fill-opacity="1"><g transform="translate(210.764686, 287.845636)"><g><path d="M 5.78125 -2.828125 C 6.101562 -2.867188 6.335938 -2.863281 6.484375 -2.8125 C 6.628906 -2.757812 6.734375 -2.65625 6.796875 -2.5 C 6.867188 -2.351562 6.921875 -2.15625 6.953125 -1.90625 C 6.984375 -1.65625 6.976562 -1.445312 6.9375 -1.28125 C 6.90625 -1.125 6.835938 -1.015625 6.734375 -0.953125 C 6.566406 -0.828125 6.320312 -0.742188 6 -0.703125 L 1.34375 -0.140625 C 1.0625 -0.0976562 0.800781 -0.171875 0.5625 -0.359375 C 0.332031 -0.554688 0.203125 -0.796875 0.171875 -1.078125 C 0.117188 -1.503906 0.21875 -1.914062 0.46875 -2.3125 C 0.71875 -2.71875 1.035156 -3.070312 1.421875 -3.375 C 1.816406 -3.6875 2.207031 -3.992188 2.59375 -4.296875 C 2.988281 -4.597656 3.316406 -4.925781 3.578125 -5.28125 C 3.835938 -5.632812 3.941406 -5.988281 3.890625 -6.34375 C 3.890625 -6.414062 3.847656 -6.515625 3.765625 -6.640625 C 3.691406 -6.773438 3.613281 -6.878906 3.53125 -6.953125 C 3.457031 -7.023438 3.347656 -7.085938 3.203125 -7.140625 C 3.054688 -7.191406 2.859375 -7.203125 2.609375 -7.171875 C 2.359375 -7.140625 2.148438 -7.019531 1.984375 -6.8125 C 1.816406 -6.601562 1.726562 -6.40625 1.71875 -6.21875 L 1.71875 -5.859375 C 1.738281 -5.691406 1.75 -5.566406 1.75 -5.484375 C 1.75 -5.398438 1.726562 -5.296875 1.6875 -5.171875 C 1.582031 -4.953125 1.28125 -4.816406 0.78125 -4.765625 C 0.226562 -4.691406 -0.117188 -4.804688 -0.265625 -5.109375 C -0.316406 -5.210938 -0.363281 -5.40625 -0.40625 -5.6875 C -0.5 -6.519531 -0.289062 -7.296875 0.21875 -8.015625 C 0.726562 -8.742188 1.460938 -9.164062 2.421875 -9.28125 C 3.378906 -9.40625 4.195312 -9.171875 4.875 -8.578125 C 5.550781 -7.992188 5.941406 -7.273438 6.046875 -6.421875 C 6.097656 -5.972656 6.050781 -5.53125 5.90625 -5.09375 C 5.757812 -4.664062 5.5625 -4.3125 5.3125 -4.03125 C 4.789062 -3.4375 4.304688 -3.023438 3.859375 -2.796875 L 3.578125 -2.625 L 3.59375 -2.5625 Z M 5.78125 -2.828125 "/></g></g></g><g fill="#f5efeb" fill-opacity="1"><g transform="translate(219.351344, 286.755972)"><g><path d="M 0.453125 -9 L 2.265625 -9.28125 L 3.375 -9.46875 C 3.5625 -9.5 3.695312 -9.507812 3.78125 -9.5 C 3.875 -9.5 3.988281 -9.476562 4.125 -9.4375 C 4.34375 -9.363281 4.492188 -9.066406 4.578125 -8.546875 C 4.648438 -8.066406 4.601562 -7.757812 4.4375 -7.625 C 4.332031 -7.5625 4.238281 -7.515625 4.15625 -7.484375 C 4.070312 -7.453125 3.941406 -7.421875 3.765625 -7.390625 L 1.703125 -7.0625 C 1.703125 -6.96875 1.707031 -6.660156 1.71875 -6.140625 C 1.8125 -6.160156 1.953125 -6.1875 2.140625 -6.21875 C 2.890625 -6.34375 3.609375 -6.171875 4.296875 -5.703125 C 4.984375 -5.242188 5.394531 -4.601562 5.53125 -3.78125 C 5.664062 -2.96875 5.492188 -2.21875 5.015625 -1.53125 C 4.546875 -0.851562 3.890625 -0.445312 3.046875 -0.3125 C 2.304688 -0.195312 1.609375 -0.273438 0.953125 -0.546875 C 0.804688 -0.617188 0.695312 -0.675781 0.625 -0.71875 L 0.515625 -0.78125 C 0.179688 -1.007812 0 -1.226562 -0.03125 -1.4375 C -0.0703125 -1.65625 0.0234375 -1.929688 0.265625 -2.265625 C 0.460938 -2.578125 0.671875 -2.75 0.890625 -2.78125 C 1.117188 -2.820312 1.40625 -2.734375 1.75 -2.515625 C 1.914062 -2.378906 2.171875 -2.335938 2.515625 -2.390625 C 2.867188 -2.441406 3.117188 -2.554688 3.265625 -2.734375 C 3.421875 -2.921875 3.472656 -3.144531 3.421875 -3.40625 C 3.378906 -3.675781 3.253906 -3.875 3.046875 -4 C 2.835938 -4.125 2.613281 -4.164062 2.375 -4.125 C 2.144531 -4.09375 1.96875 -3.988281 1.84375 -3.8125 C 1.65625 -3.59375 1.453125 -3.46875 1.234375 -3.4375 C 1.023438 -3.40625 0.769531 -3.441406 0.46875 -3.546875 C 0.164062 -3.648438 -0.0351562 -3.738281 -0.140625 -3.8125 C -0.242188 -3.894531 -0.300781 -3.988281 -0.3125 -4.09375 C -0.332031 -4.195312 -0.359375 -4.84375 -0.390625 -6.03125 C -0.429688 -7.226562 -0.445312 -7.847656 -0.4375 -7.890625 C -0.4375 -7.941406 -0.421875 -8.03125 -0.390625 -8.15625 C -0.367188 -8.28125 -0.332031 -8.394531 -0.28125 -8.5 C -0.226562 -8.613281 -0.132812 -8.71875 0 -8.8125 C 0.125 -8.90625 0.273438 -8.96875 0.453125 -9 Z M 0.453125 -9 "/></g></g></g></svg>