<svg xmlns="http://www.w3.org/2000/svg" xmlns:xlink="http://www.w3.org/1999/xlink" width="500" zoomAndPan="magnify" viewBox="0 0 375 374.999991" height="500" preserveAspectRatio="xMidYMid meet" version="1.0"><rect x="-37.5" width="450" fill="#ffffff" y="-37.499999" height="449.999989" fill-opacity="1"/><rect x="-37.5" width="450" fill="#fffaf6" y="-37.499999" height="449.999989" fill-opacity="1"/><path fill="#f7e6d3" d="M 322.066406 182.125 C 318.46875 152.085938 298.914062 124.058594 269.21875 111.820312 C 259.210938 107.699219 248.332031 105.382812 237.363281 103.734375 C 224.972656 101.863281 212.367188 100.828125 199.683594 101.097656 C 151.433594 102.109375 102.042969 123.789062 72.914062 160.417969 C 43.785156 197.046875 37.488281 248.191406 60.832031 285.589844 C 66.449219 294.597656 73.578125 302.714844 81.195312 310.355469 C 86.160156 315.34375 91.40625 320.195312 97.691406 323.765625 C 108.789062 330.0625 122.316406 331.957031 135.488281 333.507812 C 151.765625 335.425781 168.25 337.027344 184.785156 335.632812 C 226.957031 332.074219 262.933594 289.660156 294.472656 268.976562 C 326.007812 248.292969 325.660156 212.164062 322.066406 182.125 Z M 151.496094 307.207031 C 138.722656 307.207031 128.382812 296.851562 128.382812 284.089844 C 128.382812 271.332031 138.738281 260.964844 151.496094 260.964844 C 164.269531 260.964844 174.613281 271.316406 174.613281 284.078125 C 174.613281 296.839844 164.269531 307.207031 151.496094 307.207031 Z M 151.496094 307.207031 " fill-opacity="1" fill-rule="nonzero"/><path fill="#a15a19" d="M 149.039062 249.023438 C 139.199219 245.222656 127.871094 248.742188 121.40625 256.933594 C 114.597656 265.546875 113.714844 277.898438 119.21875 287.417969 C 124.492188 296.542969 135 301.652344 145.417969 299.578125 C 157.488281 297.183594 165.523438 285.742188 165.640625 273.777344 C 165.523438 263 159.214844 252.9375 149.039062 249.023438 Z M 148.027344 294.816406 C 139.519531 298.144531 129.867188 295.226562 124.273438 288.085938 C 118.566406 280.789062 117.863281 270.28125 122.417969 262.257812 C 126.847656 254.4375 135.859375 249.804688 144.789062 251.761719 C 155.003906 253.988281 161.683594 263.574219 161.773438 273.777344 C 161.699219 282.734375 156.554688 291.476562 148.027344 294.816406 Z M 104.578125 195.382812 C 106.804688 199.351562 105.191406 202.742188 103.554688 206.53125 C 102.195312 209.691406 102.566406 213.492188 100.496094 216.359375 C 98.101562 219.675781 93.671875 219.96875 89.988281 220.570312 C 85.019531 221.363281 80.222656 221.007812 76.214844 217.71875 C 72.914062 215.003906 70.289062 211.34375 69.0625 207.25 C 66.910156 200.042969 68.753906 190.390625 75.257812 185.875 C 78.300781 183.761719 82.5 182.890625 86.160156 182.929688 C 90.167969 182.96875 94.199219 184.644531 97.308594 187.117188 C 98.832031 188.320312 99.984375 189.84375 101.300781 191.261719 C 102.464844 192.554688 103.707031 193.847656 104.578125 195.382812 Z M 114.40625 142.167969 C 115.46875 146.339844 116.160156 150.679688 114.804688 154.851562 C 113.601562 158.550781 111.976562 162.722656 108.25 164.550781 C 106.421875 165.449219 104.425781 165.691406 102.441406 166 C 100.417969 166.316406 98.445312 166.855469 96.425781 167.125 C 92.355469 167.660156 88.015625 166.050781 84.714844 163.667969 C 81.449219 161.328125 78.902344 157.359375 77.816406 153.519531 C 76.804688 149.921875 76.292969 145.355469 77.519531 141.757812 C 78.6875 138.316406 82.101562 137.1875 84.777344 135.203125 C 87.582031 133.132812 89.296875 130.136719 92.726562 129.046875 C 92.890625 128.972656 93.058594 128.90625 93.277344 128.871094 C 93.429688 128.832031 93.582031 128.816406 93.738281 128.804688 C 96.246094 128.472656 98.601562 128.894531 101.007812 129.714844 C 103.105469 130.429688 105.257812 131.171875 107.164062 132.3125 C 110.914062 134.550781 113.332031 137.945312 114.40625 142.167969 Z M 106.742188 107.085938 C 104.988281 103.386719 105.078125 98.703125 105.910156 94.761719 C 106.792969 90.574219 109.542969 88.082031 112.882812 85.675781 C 114.613281 84.417969 116.210938 83.230469 118.296875 82.628906 C 120.308594 82.066406 122.433594 81.949219 124.503906 81.757812 C 129.316406 81.324219 134.128906 82.039062 137.609375 85.699219 C 139.148438 87.324219 140.363281 89.285156 141.554688 91.164062 C 142.769531 93.085938 143.871094 95.132812 144.355469 97.371094 C 145.265625 101.621094 144.765625 105.882812 143.214844 109.890625 C 141.796875 113.535156 140.835938 117.234375 137.367188 119.488281 C 130.214844 124.132812 119.769531 123.507812 113.753906 117.210938 C 112.242188 115.636719 111.066406 113.78125 109.863281 111.988281 C 108.75 110.386719 107.574219 108.839844 106.742188 107.085938 Z M 161.160156 96.054688 C 159.675781 91.765625 158.101562 87.183594 161.097656 83.164062 C 162.351562 81.488281 163.976562 80.195312 165.523438 78.8125 C 167.148438 77.355469 168.777344 75.972656 170.734375 74.960938 C 174.625 72.9375 179.039062 72.03125 183.40625 72.515625 C 187.550781 72.976562 190.761719 74.832031 194.078125 77.238281 C 197.355469 79.621094 199.671875 82.011719 200.582031 86.082031 C 201.4375 89.960938 201.335938 94.199219 198.738281 97.398438 C 197.496094 98.933594 195.894531 100.109375 194.4375 101.429688 C 193.105469 102.632812 191.878906 103.925781 190.457031 105.027344 C 188.832031 106.292969 186.976562 107.316406 184.925781 107.675781 C 182.804688 108.046875 180.703125 107.597656 178.628906 107.125 C 176.621094 106.664062 174.714844 106.574219 172.652344 106.523438 C 170.824219 106.472656 168.953125 106.292969 167.316406 105.398438 C 163.925781 103.539062 162.351562 99.507812 161.160156 96.054688 Z M 333.851562 44.285156 C 330.589844 40.558594 324.046875 38.0625 320.082031 41.75 C 319.925781 41.914062 318.800781 43.15625 318.800781 43.15625 C 307.21875 53.882812 291.246094 68.601562 273.761719 84.726562 C 273.226562 83.921875 272.714844 83.113281 272.164062 82.332031 C 258.480469 62.945312 238.324219 49.378906 215.3125 43.683594 C 209.21875 42.171875 203 41.210938 196.742188 40.660156 C 172.191406 39.101562 147.273438 42.351562 124.554688 52.039062 C 101.878906 61.6875 82.539062 77.714844 68.179688 97.679688 C 51.640625 120.652344 40.660156 148.605469 39.085938 176.964844 C 38.28125 191.53125 40.199219 206.199219 45.167969 219.933594 C 50.402344 234.417969 58.234375 247.972656 66.21875 261.09375 C 81.246094 285.753906 100.828125 310.058594 129.046875 319.835938 C 142.421875 324.472656 158.535156 325.839844 171.078125 318.199219 C 182.277344 311.378906 188.832031 299.195312 193.515625 287.355469 C 198.738281 274.183594 201.886719 260.042969 209.488281 247.921875 C 217.101562 235.761719 229.324219 228.621094 241.40625 221.542969 C 252.902344 214.8125 263.714844 207.261719 272.75 197.367188 C 281.519531 187.757812 288.558594 176.363281 291.988281 163.746094 C 295.96875 149.117188 294.457031 133.835938 289.980469 119.511719 C 288.070312 113.410156 285.769531 107.328125 283.054688 101.429688 C 294.523438 90.945312 325.40625 63.121094 332.265625 56.761719 C 335.964844 53.332031 337.472656 48.40625 333.851562 44.285156 Z M 290.492188 145.046875 C 290.847656 171.539062 274.238281 194.398438 253.464844 209.359375 C 242.664062 217.140625 230.375 222.621094 219.878906 230.863281 C 214.542969 235.058594 209.921875 240.011719 206.289062 245.757812 C 202.601562 251.582031 199.914062 257.980469 197.535156 264.433594 C 192.914062 276.988281 189.496094 290.132812 182.175781 301.496094 C 178.859375 306.628906 174.726562 311.351562 169.519531 314.617188 C 163.296875 318.519531 155.988281 319.925781 148.707031 319.722656 C 120.0625 318.902344 96.464844 297.734375 80.503906 275.757812 C 71.761719 263.730469 64.160156 250.75 57.261719 237.59375 C 50.425781 224.539062 45.113281 210.792969 43.4375 196.074219 C 40.25 168.148438 48.035156 139.734375 61.511719 115.390625 C 73.476562 93.789062 90.398438 75.167969 111.820312 62.675781 C 132.109375 50.847656 155.351562 45.011719 178.734375 44.195312 C 184.734375 43.988281 190.738281 44.105469 196.726562 44.476562 C 220.148438 46.511719 242.585938 55.710938 259.160156 72.644531 C 263.589844 77.164062 267.453125 82.117188 270.871094 87.363281 C 269.128906 88.976562 267.375 90.589844 265.609375 92.214844 C 244.980469 111.246094 225.679688 131.699219 212.316406 144.074219 C 204.726562 151.113281 196.613281 157.578125 189.023438 164.601562 C 188.011719 165.550781 187.089844 166.714844 186.359375 167.996094 C 178.207031 167.765625 170.09375 171.296875 164.691406 177.542969 C 157.820312 185.492188 155.402344 196.703125 147.375 203.714844 C 143.523438 207.082031 137.867188 209.769531 132.902344 207.195312 C 130.710938 206.058594 128.765625 209.371094 130.96875 210.511719 C 134.21875 212.203125 137.535156 212.394531 140.707031 211.625 C 140.644531 211.742188 140.566406 211.832031 140.527344 211.972656 C 140.273438 212.867188 140.847656 214.199219 141.871094 214.339844 C 148.003906 215.171875 153.722656 217.769531 159.753906 219.0625 C 162.621094 219.675781 165.574219 220.046875 168.507812 219.664062 C 170.722656 219.367188 172.859375 218.613281 174.933594 217.808594 C 182.980469 214.660156 189.277344 209.105469 193.082031 201.285156 C 196 195.292969 197.546875 188.753906 198.558594 182.1875 C 199.800781 181.882812 200.9375 181.332031 201.859375 180.488281 C 228.53125 155.757812 253.296875 128.984375 279.957031 104.257812 C 285.792969 117.09375 290.3125 130.867188 290.492188 145.046875 Z M 186.09375 178.09375 C 183.890625 180.871094 181.972656 183.902344 180.011719 186.847656 C 177.195312 191.070312 174.226562 195.089844 170.492188 198.558594 C 166.703125 202.066406 162.390625 204.6875 157.5 206.351562 C 154.273438 207.453125 150.84375 208.3125 147.402344 208.527344 C 150.730469 206.222656 153.609375 203.089844 155.65625 199.953125 C 161.429688 191.097656 164.578125 179.886719 174.496094 174.597656 C 177.722656 172.882812 181.304688 171.9375 184.914062 171.847656 C 184.492188 174.035156 184.761719 176.25 186.09375 178.09375 Z M 154.722656 211.164062 C 158.640625 210.179688 162.566406 208.757812 166.050781 206.699219 C 173.433594 202.320312 178.757812 195.652344 183.441406 188.613281 C 185.222656 185.9375 186.976562 183.148438 188.984375 180.601562 C 190.074219 181.230469 191.300781 181.726562 192.582031 182.046875 C 192.464844 182.175781 192.351562 182.328125 192.261719 182.507812 C 186.359375 194.386719 177.3125 207.132812 164 211.101562 C 159.917969 212.316406 155.683594 212.507812 151.511719 211.84375 C 152.597656 211.664062 153.671875 211.433594 154.722656 211.164062 Z M 174.523438 210.308594 C 181.214844 205.828125 186.539062 199.554688 190.851562 192.824219 C 191.789062 191.351562 192.671875 189.855469 193.527344 188.332031 C 191.878906 195.5625 189.125 202.667969 183.800781 207.875 C 181.242188 210.382812 178.183594 212.289062 174.894531 213.699219 C 173.191406 214.429688 171.425781 215.054688 169.632812 215.542969 C 167.0625 216.246094 164.320312 216.027344 161.722656 215.542969 C 161.683594 215.527344 161.648438 215.527344 161.609375 215.515625 C 166.175781 214.722656 170.542969 212.96875 174.523438 210.308594 Z M 278.074219 141.785156 C 278.871094 147.683594 278.394531 153.597656 276.71875 159.304688 C 270.382812 180.871094 251.082031 193.949219 233.230469 205.570312 C 231.15625 206.929688 229.222656 203.601562 231.296875 202.257812 C 236.210938 199.058594 241.125 195.859375 245.863281 192.390625 C 261.425781 181.011719 277.191406 163.667969 274.378906 142.792969 C 274.238281 141.769531 274.609375 140.722656 275.722656 140.425781 C 276.628906 140.210938 277.933594 140.746094 278.074219 141.785156 Z M 219.574219 213.390625 C 219.417969 213.546875 219.253906 213.710938 219.101562 213.863281 C 217.347656 215.617188 214.632812 212.90625 216.386719 211.152344 C 216.539062 211 216.707031 210.832031 216.859375 210.679688 C 218.613281 208.925781 221.328125 211.636719 219.574219 213.390625 Z M 219.574219 213.390625 " fill-opacity="1" fill-rule="nonzero"/></svg>